<svg width="50" height="50" viewBox="0 0 50 50" fill="none" xmlns="http://www.w3.org/2000/svg">
<path d="M27.7829 5.62891H24.9748C24.4761 5.62891 24.0703 6.03467 24.0703 6.5335V9.90313C24.0702 10.4019 24.476 10.8076 24.9748 10.8076H27.7829C28.2816 10.8076 28.6875 10.4019 28.6875 9.90303V6.5335C28.6875 6.03477 28.2817 5.62891 27.7829 5.62891ZM27.2588 9.37901H25.4988V7.05752H27.2588V9.37901Z" fill="black"/>
<path d="M33.361 5.62891H30.5529C30.0542 5.62891 29.6484 6.03467 29.6484 6.5335V9.90313C29.6484 10.4019 30.0541 10.8076 30.5529 10.8076H33.361C33.8598 10.8076 34.2655 10.4019 34.2655 9.90303V6.5335C34.2655 6.03477 33.8598 5.62891 33.361 5.62891ZM32.8368 9.37901H31.077V7.05752H32.8368V9.37901Z" fill="black"/>
<path d="M38.947 5.62891H36.1389C35.6401 5.62891 35.2344 6.03467 35.2344 6.5335V9.90313C35.2344 10.4019 35.6401 10.8076 36.1389 10.8076H38.947C39.4457 10.8076 39.8516 10.4019 39.8516 9.90303V6.5335C39.8516 6.03477 39.4458 5.62891 38.947 5.62891ZM38.4229 9.37901H36.663V7.05752H38.4229V9.37901Z" fill="black"/>
<path d="M27.7829 13.9951H24.9748C24.4761 13.9951 24.0703 14.4009 24.0703 14.8997V18.2693C24.0702 18.7682 24.476 19.1739 24.9748 19.1739H27.7829C28.2816 19.1739 28.6875 18.7682 28.6875 18.2693V14.8997C28.6875 14.401 28.2817 13.9951 27.7829 13.9951ZM27.2588 17.7454H25.4988V15.4239H27.2588V17.7454Z" fill="black"/>
<path d="M33.361 13.9951H30.5529C30.0542 13.9951 29.6484 14.4009 29.6484 14.8997V18.2693C29.6484 18.7682 30.0541 19.1739 30.5529 19.1739H33.361C33.8598 19.1739 34.2655 18.7682 34.2655 18.2693V14.8997C34.2655 14.401 33.8598 13.9951 33.361 13.9951ZM32.8368 17.7454H31.077V15.4239H32.8368V17.7454Z" fill="black"/>
<path d="M38.947 13.9951H36.1389C35.6401 13.9951 35.2344 14.4009 35.2344 14.8997V18.2693C35.2344 18.7682 35.6401 19.1739 36.1389 19.1739H38.947C39.4457 19.1739 39.8516 18.7682 39.8516 18.2693V14.8997C39.8516 14.401 39.4458 13.9951 38.947 13.9951ZM38.4229 17.7454H36.663V15.4239H38.4229V17.7454Z" fill="black"/>
<path d="M27.7829 22.3643H24.9748C24.4761 22.3643 24.0703 22.77 24.0703 23.2688V26.6385C24.0702 27.1372 24.476 27.5431 24.9748 27.5431H27.7829C28.2816 27.5431 28.6875 27.1373 28.6875 26.6385V23.2688C28.6875 22.7701 28.2817 22.3643 27.7829 22.3643ZM27.2588 26.1145H25.4988V23.793H27.2588V26.1145Z" fill="black"/>
<path d="M33.361 22.3643H30.5529C30.0542 22.3643 29.6484 22.77 29.6484 23.2688V26.6385C29.6484 27.1372 30.0541 27.5431 30.5529 27.5431H33.361C33.8598 27.5431 34.2655 27.1373 34.2655 26.6385V23.2688C34.2655 22.7701 33.8598 22.3643 33.361 22.3643ZM32.8368 26.1145H31.077V23.793H32.8368V26.1145Z" fill="black"/>
<path d="M38.947 22.3643H36.1389C35.6401 22.3643 35.2344 22.77 35.2344 23.2688V26.6385C35.2344 27.1372 35.6401 27.5431 36.1389 27.5431H38.947C39.4457 27.5431 39.8516 27.1373 39.8516 26.6385V23.2688C39.8516 22.7701 39.4458 22.3643 38.947 22.3643ZM38.4229 26.1145H36.663V23.793H38.4229V26.1145Z" fill="black"/>
<path d="M38.947 30.7314H36.1389C35.6401 30.7314 35.2344 31.1372 35.2344 31.6359V35.0056C35.2344 35.5043 35.6401 35.9102 36.1389 35.9102H38.947C39.4457 35.9102 39.8516 35.5044 39.8516 35.0056V31.6359C39.8516 31.1372 39.4458 30.7314 38.947 30.7314ZM38.4229 34.4814H36.663V32.1601H38.4229V34.4814Z" fill="black"/>
<path d="M48.2953 33.9148C47.38 32.5695 45.5365 32.2134 44.187 33.1203L42.223 34.4347V3.70732H42.3654C42.8826 3.70732 43.3033 3.28662 43.3033 2.76943V0.937891C43.3033 0.420703 42.8826 0 42.3654 0H37.8041C37.4096 0 37.0898 0.319824 37.0898 0.714258C37.0898 1.10869 37.4097 1.42852 37.8041 1.42852H41.8747V2.27861H21.819V1.42852H33.3312C33.7257 1.42852 34.0454 1.10869 34.0454 0.714258C34.0454 0.319824 33.7256 0 33.3311 0H21.3283C20.8111 0 20.3904 0.420703 20.3904 0.937891V2.76943C20.3904 3.28662 20.8111 3.70732 21.3283 3.70732H21.691V12.8822H20.2243V11.1191C20.2243 10.5053 19.7249 10.0059 19.1111 10.0059H13.7178C13.1039 10.0059 12.6045 10.5053 12.6045 11.1191V12.8821H11.5781C10.9402 12.8821 10.4213 13.4011 10.4213 14.039V30.4203C10.1189 30.4011 9.81572 30.3907 9.51182 30.3907H8.38604V30.0194C8.38604 28.6336 7.25859 27.5062 5.87266 27.5062H3.70088C2.31504 27.5062 1.1875 28.6336 1.1875 30.0194V40.2196C1.1875 40.6142 1.50732 40.9339 1.90176 40.9339C2.29619 40.9339 2.61602 40.6141 2.61602 40.2196V30.0194C2.61602 29.4214 3.10264 28.9348 3.70078 28.9348H5.87256C6.4707 28.9348 6.95732 29.4214 6.95732 30.0194V46.0914C6.95732 46.6895 6.4707 47.1761 5.87256 47.1761H3.70088C3.10273 47.1761 2.61611 46.6895 2.61611 46.0914V44.6899C2.61611 44.2954 2.29629 43.9757 1.90186 43.9757C1.50742 43.9757 1.1876 44.2955 1.1876 44.6899V46.0914C1.1876 47.4772 2.31504 48.6047 3.70098 48.6047H5.87275C7.25859 48.6047 8.38613 47.4771 8.38613 46.0914V46.0507L18.2771 49.7962C18.2964 49.8035 18.316 49.81 18.3359 49.8156C18.7705 49.9384 19.2049 50 19.6354 50C19.8693 50 20.1021 49.9817 20.3332 49.9453C20.3334 49.9453 20.3339 49.9452 20.3346 49.9451L34.9343 47.8406C34.9379 47.8401 34.9414 47.8396 34.945 47.839C36.1931 47.6396 37.3703 47.1122 38.3497 46.3135C38.3586 46.3063 38.3674 46.2987 38.3759 46.291L47.8122 37.804C48.9242 36.8164 49.1319 35.1445 48.2953 33.9148ZM23.1196 3.70732H40.7945V35.3908L34.8514 39.3683L32.8588 39.2564L32.808 38.7463C32.7708 38.3716 32.6868 38.0111 32.5618 37.671C32.5201 37.5576 32.4739 37.4465 32.4234 37.3378C32.3476 37.1748 32.262 37.0174 32.1674 36.8662C31.9437 36.5091 31.6692 36.1873 31.3538 35.9104H33.3612C33.86 35.9104 34.2657 35.5046 34.2657 35.0058V31.6361C34.2657 31.1374 33.86 30.7316 33.3612 30.7316H30.5531C30.0544 30.7316 29.6486 31.1374 29.6486 31.6361V34.9897C29.4682 34.9399 29.2829 34.901 29.0934 34.8741C29.0873 34.8732 29.0812 34.8725 29.075 34.8718L28.6824 34.8266V31.636C28.6824 31.1373 28.2767 30.7314 27.7778 30.7314H24.9697C24.471 30.7314 24.0652 31.1372 24.0652 31.636V34.295L23.1196 34.1862V3.70732ZM31.0771 34.4817V32.1604H32.8369V34.4817H31.0771ZM27.2537 32.1603V34.4817H25.6856L25.4937 34.4597V32.1603H27.2537ZM14.0331 11.4345H18.7957V12.8821H14.0331V11.4345ZM11.8497 14.3107H21.691V16.5445H13.624C13.1622 16.5445 12.7865 16.9202 12.7865 17.382V19.5388C12.7865 20.0006 13.1622 20.3763 13.624 20.3763H21.691V22.3858H13.624C13.1622 22.3858 12.7865 22.7615 12.7865 23.2233V25.38C12.7865 25.8418 13.1622 26.2175 13.624 26.2175H21.691V28.2271H13.624C13.1622 28.2271 12.7865 28.6027 12.7865 29.0646V30.7699C12.6652 30.7417 12.5435 30.7153 12.4212 30.6901C12.3636 30.6782 12.306 30.6669 12.2481 30.6557C12.1806 30.6426 12.1127 30.6303 12.0448 30.6182C11.9798 30.6064 11.9149 30.5939 11.8497 30.5832V14.3107ZM21.691 17.9731V18.9477H14.2151V17.9731H21.691ZM21.691 23.8144V24.7889H14.2151V23.8144H21.691ZM14.2151 30.6302V29.6557H21.691V30.6302H14.2151ZM21.691 32.0588V34.0218L21.471 33.9964C21.0095 33.9308 20.5548 33.8402 20.1072 33.7269C19.2395 33.507 18.3995 33.1988 17.5943 32.803C17.4873 32.7504 17.3812 32.6959 17.2754 32.6401C17.1027 32.5492 16.9316 32.4548 16.7624 32.3558C16.6378 32.2828 16.512 32.2127 16.3857 32.1437C16.3584 32.1288 16.3311 32.1141 16.3036 32.0994C16.2785 32.0859 16.2535 32.0721 16.2284 32.0588H21.691ZM46.8603 36.7388L37.4338 45.2168C36.6532 45.8496 35.7171 46.268 34.7248 46.4273L20.125 48.5318C20.1218 48.5323 20.1085 48.5344 20.1054 48.5349C19.6686 48.6039 19.2136 48.5749 18.7526 48.4487L8.38604 44.523V31.8194H9.51172C10.0297 31.8194 10.5456 31.8523 11.0572 31.9141C11.1611 31.9266 11.2646 31.9403 11.368 31.9553C11.383 31.9574 11.3979 31.9598 11.4129 31.962C11.6739 32.0007 11.9326 32.0477 12.1892 32.1016C12.2689 32.1185 12.3488 32.1354 12.4283 32.1538C12.4681 32.163 12.5076 32.1727 12.5473 32.1821C12.6509 32.2071 12.7543 32.2331 12.8573 32.2607C12.8759 32.2657 12.8945 32.2705 12.9131 32.2756C13.7201 32.4956 14.5059 32.7939 15.2582 33.1671C15.2807 33.1782 15.303 33.1895 15.3254 33.2009C15.4211 33.249 15.5161 33.2986 15.6106 33.3491C15.6395 33.3646 15.6684 33.3797 15.6971 33.3953C15.8108 33.4573 15.924 33.5206 16.036 33.5861C16.0377 33.5871 16.0394 33.588 16.041 33.589C16.3446 33.7665 16.6532 33.9324 16.9666 34.0864C18.3244 34.7538 19.7709 35.1988 21.2798 35.4123C21.2859 35.4132 21.292 35.414 21.2981 35.4146L22.3236 35.5327L23.1588 35.6289L25.0849 35.8507L25.5628 35.9058C25.5629 35.9058 25.563 35.9058 25.5631 35.9058L28.9016 36.2901C30.232 36.4823 31.2532 37.5493 31.3863 38.8878L31.4111 39.1367L18.0224 37.8318C17.6285 37.7935 17.2804 38.0809 17.2421 38.4735C17.2039 38.8662 17.4911 39.2155 17.8838 39.2538L32.0773 40.6372C32.1071 40.6428 32.1374 40.6472 32.1684 40.6488L35.0099 40.8083C35.0232 40.8091 35.0366 40.8094 35.0499 40.8094C35.0641 40.8094 35.0779 40.8071 35.0921 40.8062C35.1083 40.8053 35.1244 40.8047 35.1404 40.8026C35.1609 40.8 35.1811 40.7955 35.2013 40.7911C35.2171 40.7877 35.233 40.785 35.2484 40.7805C35.2699 40.7742 35.2907 40.7658 35.3115 40.7575C35.3247 40.7523 35.3382 40.7482 35.351 40.7423C35.3842 40.7269 35.4164 40.7091 35.4472 40.6886L41.9061 36.366L41.9062 36.3659L44.9827 34.3069C45.6832 33.8362 46.6395 34.0209 47.1142 34.7187C47.5481 35.3563 47.4404 36.2235 46.8603 36.7388Z" fill="black"/>
</svg>
