<svg width="50" height="50" viewBox="0 0 50 50" fill="none" xmlns="http://www.w3.org/2000/svg">
<path d="M48.8951 14.6936H35.8022V2.804C35.8022 2.19385 35.3075 1.69922 34.6974 1.69922H10.1722C9.56209 1.69922 9.06746 2.19385 9.06746 2.804V22.8605C6.23553 23.3738 4.06767 25.819 3.9872 28.7776C1.65742 29.489 0 31.6571 0 34.1697C0 37.2791 2.52968 39.8087 5.63905 39.8087H9.06756V46.8596V47.1951C9.06756 47.8053 9.56219 48.2999 10.1723 48.2999H18.6049H26.2648H34.6975H48.8952C49.5054 48.2999 50 47.8053 50 47.1951V15.7984C49.9999 15.1883 49.5053 14.6936 48.8951 14.6936ZM17.5001 46.0904H11.2771V39.8087H14.7075C15.7231 39.8087 16.6761 39.5375 17.5001 39.0657V46.0904ZM17.8204 35.6063C17.8048 35.64 17.7886 35.673 17.7722 35.7059C17.759 35.732 17.7461 35.758 17.7324 35.7836C17.7213 35.8046 17.7095 35.8249 17.6979 35.8456C17.1097 36.8911 15.99 37.5992 14.7075 37.5992H11.2771V33.5896C11.2771 32.9794 10.7825 32.4848 10.1723 32.4848C9.56219 32.4848 9.06756 32.9794 9.06756 33.5896V37.5992H5.63905C3.74794 37.5991 2.20957 36.0606 2.20957 34.1697C2.20957 32.4372 3.50468 30.9742 5.22226 30.7665C5.77704 30.6995 6.19452 30.2287 6.19452 29.6697V28.9481C6.19452 26.7542 7.97938 24.9693 10.1733 24.9693C12.1609 24.9693 13.8128 26.4343 14.1058 28.3413C14.1061 28.3433 14.1064 28.3454 14.1067 28.3474C14.1154 28.4052 14.1227 28.4634 14.1289 28.5219C14.1303 28.5357 14.1317 28.5496 14.1331 28.5634C14.1379 28.6122 14.1414 28.6612 14.1443 28.7105C14.1453 28.7266 14.1466 28.7427 14.1471 28.7589C14.1502 28.8217 14.1519 28.8846 14.1519 28.9481V29.6697C14.1519 29.7395 14.1585 29.808 14.171 29.8745C14.1835 29.941 14.2019 30.0055 14.2259 30.0673C14.2378 30.0983 14.2511 30.1286 14.2657 30.1581C14.4262 30.4834 14.7427 30.7204 15.1241 30.7665C15.1274 30.7669 15.1306 30.7674 15.134 30.7679C15.1822 30.7739 15.2303 30.7808 15.2778 30.7887C15.316 30.7952 15.3541 30.8028 15.392 30.8105C15.4036 30.8128 15.4154 30.8148 15.427 30.8172C16.121 30.9659 16.7566 31.3297 17.2416 31.8611C17.2434 31.863 17.2456 31.8648 17.2474 31.8668C17.8019 32.4787 18.1369 33.2892 18.1369 34.1697C18.1369 34.6826 18.0229 35.169 17.8204 35.6063ZM18.9364 30.0116H18.9363H18.5146C17.9064 29.454 17.1743 29.0264 16.3593 28.7777C16.3569 28.6887 16.3523 28.6002 16.3462 28.5121C16.3455 28.5025 16.3446 28.4929 16.3439 28.4833C16.3425 28.4657 16.3408 28.448 16.3393 28.4303C16.3341 28.3675 16.3284 28.3049 16.3214 28.2425C16.3199 28.2302 16.3182 28.218 16.3169 28.2057C16.316 28.1979 16.315 28.1901 16.314 28.1823C16.3126 28.1704 16.3112 28.1584 16.3096 28.1464C16.3019 28.086 16.2931 28.0259 16.2837 27.9659C16.283 27.9619 16.2823 27.958 16.2818 27.954C16.2251 27.6004 16.1389 27.2541 16.0223 26.9181H18.9366V30.0116H18.9364ZM25.1599 46.0903H19.7096V37.1313H20.0411H25.1599V46.0903ZM33.5926 15.7984V46.0904H27.3695V37.1313H28.2649C28.875 37.1313 29.3697 36.6367 29.3697 36.0265C29.3697 35.4163 28.875 34.9217 28.2649 34.9217H26.2647H20.2949C20.3278 34.6754 20.3464 34.4247 20.3464 34.1697C20.3464 33.4872 20.2233 32.8305 19.9984 32.2211H20.041C20.6511 32.2211 21.1458 31.7265 21.1458 31.1164V25.8133C21.1458 25.2032 20.6511 24.7085 20.041 24.7085H14.6768C14.6194 24.6476 14.5606 24.5877 14.5008 24.5293C14.4782 24.5072 14.4548 24.4861 14.432 24.4643C14.3862 24.4208 14.3403 24.3773 14.2931 24.3351C14.2634 24.3085 14.2326 24.283 14.2023 24.2569C14.1627 24.2229 14.1232 24.1887 14.0827 24.1556C14.0498 24.1288 14.0163 24.1027 13.9828 24.0765C13.9435 24.0458 13.9043 24.0152 13.8643 23.9854C13.8295 23.9593 13.7939 23.9339 13.7585 23.9086C13.7186 23.8801 13.6785 23.8521 13.6381 23.8246C13.6017 23.8 13.5651 23.7755 13.5282 23.7516C13.487 23.7249 13.4452 23.6989 13.4034 23.6731C13.3663 23.6503 13.3292 23.6275 13.2916 23.6053C13.248 23.5798 13.2039 23.5554 13.1597 23.5309C13.1226 23.5104 13.0857 23.4895 13.0481 23.4697C13.0002 23.4444 12.9514 23.4207 12.9028 23.3965C12.868 23.3794 12.8336 23.3614 12.7984 23.3449C12.7167 23.3064 12.6342 23.2697 12.5505 23.2347C12.5201 23.222 12.4889 23.2108 12.4582 23.1985C12.4018 23.176 12.3456 23.1536 12.2884 23.1327C12.25 23.1186 12.2111 23.106 12.1724 23.0928C12.122 23.0754 12.0714 23.0582 12.0203 23.0421C11.9796 23.0294 11.9384 23.0176 11.8972 23.0057C11.8472 22.9912 11.797 22.9769 11.7466 22.9635C11.7046 22.9525 11.6625 22.9422 11.6202 22.9321C11.5693 22.9198 11.5181 22.9082 11.4666 22.8972C11.4244 22.8881 11.3821 22.8796 11.3395 22.8713C11.3185 22.8673 11.2979 22.8624 11.2769 22.8587V3.90878H33.5923V15.7984H33.5926ZM47.7903 46.0903H35.8022V16.9032H47.7903V46.0903Z" fill="black"/>
<path d="M44.3514 20.2158H39.0735C38.4634 20.2158 37.9688 20.7104 37.9688 21.3206V27.6592V33.9976V40.3285C37.9688 40.9386 38.4634 41.4333 39.0735 41.4333H44.3514C44.9615 41.4333 45.4561 40.9386 45.4561 40.3285V33.9976V27.6592V21.3206C45.4561 20.7104 44.9616 20.2158 44.3514 20.2158ZM43.2466 39.2236H40.1783V35.1024H43.2466V39.2236ZM43.2466 32.8928H40.1783V28.764H43.2466V32.8928ZM43.2466 26.5544H40.1783V22.4254H43.2466V26.5544Z" fill="black"/>
<path d="M32.6907 35.246C32.6399 35.1953 32.5836 35.1488 32.5227 35.109C32.4631 35.0693 32.399 35.035 32.3327 35.0074C32.2653 34.9797 32.1968 34.9577 32.1261 34.9444C31.9836 34.9157 31.8366 34.9157 31.6941 34.9444C31.6234 34.9577 31.5538 34.9797 31.4875 35.0074C31.4201 35.035 31.3561 35.0693 31.2964 35.109C31.2356 35.1488 31.1793 35.1952 31.1284 35.246C31.0776 35.2968 31.0312 35.3532 30.9914 35.414C30.9517 35.4737 30.9174 35.5377 30.8897 35.604C30.8621 35.6714 30.8411 35.7411 30.8268 35.8118C30.8124 35.8825 30.8047 35.9554 30.8047 36.0272C30.8047 36.099 30.8124 36.1719 30.8268 36.2426C30.8411 36.3133 30.8621 36.3829 30.8897 36.4493C30.9174 36.5166 30.9517 36.5807 30.9914 36.6404C31.0312 36.7011 31.0775 36.7574 31.1284 36.8083C31.1792 36.8591 31.2355 36.9056 31.2964 36.9453C31.3561 36.9851 31.4201 37.0194 31.4875 37.047C31.5538 37.0746 31.6234 37.0956 31.6941 37.11C31.7648 37.1243 31.8378 37.1321 31.9096 37.1321C31.9825 37.1321 32.0543 37.1243 32.1261 37.11C32.1968 37.0956 32.2652 37.0746 32.3327 37.047C32.399 37.0194 32.4631 36.9851 32.5227 36.9453C32.5835 36.9056 32.6398 36.8592 32.6907 36.8083C32.8974 36.6029 33.0144 36.3178 33.0144 36.0273C33.0144 35.7368 32.8974 35.4515 32.6907 35.246Z" fill="black"/>
<path d="M20.0406 6.19434H14.222C13.6118 6.19434 13.1172 6.68896 13.1172 7.29912V12.6021C13.1172 13.2123 13.6118 13.7069 14.222 13.7069H20.0406C20.6508 13.7069 21.1454 13.2123 21.1454 12.6021V7.29922C21.1454 6.68896 20.6508 6.19434 20.0406 6.19434ZM18.9358 11.4974H15.3268V8.404H18.9358V11.4974Z" fill="black"/>
<path d="M30.3961 6.19434H24.5774C23.9673 6.19434 23.4727 6.68896 23.4727 7.29912V12.6021C23.4727 13.2123 23.9673 13.7069 24.5774 13.7069H30.3961C31.0062 13.7069 31.5009 13.2123 31.5009 12.6021V7.29922C31.5009 6.68896 31.0062 6.19434 30.3961 6.19434ZM29.2913 11.4974H25.6822V8.404H29.2913V11.4974Z" fill="black"/>
<path d="M20.0406 15.4521H14.222C13.6118 15.4521 13.1172 15.9468 13.1172 16.5569V21.8599C13.1172 22.4701 13.6118 22.9647 14.222 22.9647H20.0406C20.6508 22.9647 21.1454 22.4701 21.1454 21.8599V16.5569C21.1454 15.9468 20.6508 15.4521 20.0406 15.4521ZM18.9358 20.7552H15.3268V17.6617H18.9358V20.7552Z" fill="black"/>
<path d="M30.3961 15.4521H24.5774C23.9673 15.4521 23.4727 15.9468 23.4727 16.5569V21.8599C23.4727 22.4701 23.9673 22.9647 24.5774 22.9647H30.3961C31.0062 22.9647 31.5009 22.4701 31.5009 21.8599V16.5569C31.5009 15.9468 31.0062 15.4521 30.3961 15.4521ZM29.2913 20.7552H25.6822V17.6617H29.2913V20.7552Z" fill="black"/>
<path d="M30.3961 24.709H24.5774C23.9673 24.709 23.4727 25.2036 23.4727 25.8138V31.1168C23.4727 31.7269 23.9673 32.2216 24.5774 32.2216H30.3961C31.0062 32.2216 31.5009 31.7269 31.5009 31.1168V25.8138C31.5009 25.2036 31.0062 24.709 30.3961 24.709ZM29.2913 30.012H25.6822V26.9185H29.2913V30.012Z" fill="black"/>
<path d="M11.258 29.7288C11.2436 29.658 11.2227 29.5884 11.195 29.5221C11.1674 29.4547 11.1331 29.3907 11.0934 29.331C11.0536 29.2703 11.0072 29.2139 10.9563 29.163C10.9056 29.1123 10.8492 29.0658 10.7884 29.026C10.7287 28.9863 10.6646 28.952 10.5973 28.9244C10.531 28.8967 10.4614 28.8757 10.3906 28.8614C10.2481 28.8327 10.1012 28.8327 9.95869 28.8614C9.88906 28.8757 9.81953 28.8967 9.75205 28.9244C9.68574 28.952 9.62168 28.9863 9.56201 29.026C9.50127 29.0658 9.44492 29.1122 9.39404 29.163C9.34209 29.2138 9.29678 29.2702 9.25596 29.331C9.21621 29.3907 9.18193 29.4547 9.1543 29.5221C9.12666 29.5884 9.10566 29.658 9.09131 29.7288C9.07695 29.7995 9.07031 29.8724 9.07031 29.9442C9.07031 30.016 9.07695 30.0889 9.09131 30.1607C9.10566 30.2303 9.12666 30.2998 9.1543 30.3673C9.18193 30.4336 9.21621 30.4977 9.25596 30.5574C9.29687 30.6181 9.34209 30.6744 9.39404 30.7253C9.44482 30.7761 9.50117 30.8226 9.56201 30.8634C9.62168 30.9032 9.68574 30.9374 9.75205 30.9651C9.81943 30.9927 9.88906 31.0137 9.95869 31.0281C10.0305 31.0424 10.1034 31.049 10.1752 31.049C10.247 31.049 10.3199 31.0424 10.3906 31.0281C10.4613 31.0137 10.531 30.9927 10.5973 30.9651C10.6646 30.9374 10.7287 30.9032 10.7884 30.8634C10.8491 30.8225 10.9055 30.7761 10.9563 30.7253C11.0071 30.6745 11.0536 30.6182 11.0934 30.5574C11.1331 30.4977 11.1674 30.4336 11.195 30.3673C11.2227 30.2999 11.2436 30.2303 11.258 30.1607C11.2724 30.0889 11.2801 30.016 11.2801 29.9442C11.2801 29.8724 11.2724 29.7995 11.258 29.7288Z" fill="black"/>
</svg>
