<svg width="50" height="50" viewBox="0 0 50 50" fill="none" xmlns="http://www.w3.org/2000/svg">
<g clip-path="url(#clip0)">
<path d="M49.4683 20.319L25.7675 2.96577C25.3105 2.6312 24.6896 2.6312 24.2328 2.96577L0.531795 20.319C-0.0471115 20.7429 -0.172893 21.5558 0.251033 22.1347C0.674959 22.7136 1.48795 22.8392 2.06676 22.4155L25.0001 5.62407L47.9334 22.4154C48.1646 22.5848 48.4334 22.6664 48.6998 22.6664C49.0998 22.6664 49.4945 22.4823 49.749 22.1346C50.173 21.5558 50.0472 20.7429 49.4683 20.319Z" fill="black"/>
<path d="M43.1869 22.709C42.4695 22.709 41.8878 23.2906 41.8878 24.0081V44.6867H31.495V33.399C31.495 29.817 28.5808 26.9029 24.9989 26.9029C21.4171 26.9029 18.5028 29.8172 18.5028 33.399V44.6868H8.10996V24.0082C8.10996 23.2907 7.52822 22.7091 6.81084 22.7091C6.09346 22.7091 5.51172 23.2907 5.51172 24.0082V45.986C5.51172 46.7035 6.09346 47.2852 6.81084 47.2852H19.802C20.4852 47.2852 21.0442 46.7573 21.096 46.0872C21.0991 46.0568 21.1011 46.0236 21.1011 45.986V33.3991C21.1011 31.2498 22.8496 29.5013 24.9989 29.5013C27.1482 29.5013 28.8968 31.2499 28.8968 33.3991V45.986C28.8968 46.0234 28.8987 46.0561 28.9019 46.086C28.953 46.7566 29.5123 47.2852 30.1959 47.2852H43.187C43.9045 47.2852 44.4861 46.7035 44.4861 45.986V24.0082C44.486 23.2906 43.9044 22.709 43.1869 22.709Z" fill="black"/>
</g>
<defs>
<clipPath id="clip0">
<rect width="50" height="50" fill="white"/>
</clipPath>
</defs>
</svg>
