<svg width="50" height="50" viewBox="0 0 50 50" fill="none" xmlns="http://www.w3.org/2000/svg">
<g clip-path="url(#clip0)">
<path d="M1.2662 27.5H1.6662V41.6667C1.6662 42.5871 2.41239 43.3333 3.33286 43.3333H14.9995V45C14.0791 45 13.3329 45.7462 13.3329 46.6667V48.3333C13.3329 49.2538 14.0791 50 14.9995 50H34.9995C35.92 50 36.6662 49.2538 36.6662 48.3333V46.6667C36.6662 45.7462 35.92 45 34.9995 45V43.3333H46.6662C47.5867 43.3333 48.3329 42.5871 48.3329 41.6667V27.5H48.7329C49.2811 27.4998 49.7672 27.1474 49.9378 26.6263C50.1084 26.1052 49.9249 25.5336 49.4829 25.2092L43.3329 20.7417V13.9167C43.6708 13.6636 43.8582 13.2569 43.831 12.8355C43.8037 12.4142 43.5656 12.035 43.1979 11.8275L37.4995 8.60833V4.16667C37.4977 3.57389 37.1802 3.02701 36.6662 2.73167V0.833333C36.6662 0.373096 36.2931 0 35.8329 0C35.3726 0 34.9995 0.373096 34.9995 0.833333V2.5H34.1662V0.833333C34.1662 0.373096 33.7931 0 33.3329 0C32.8726 0 32.4995 0.373096 32.4995 0.833333V2.73167C31.9856 3.02701 31.668 3.57389 31.6662 4.16667V5.31083L25.6154 1.89417C25.2335 1.67818 24.7664 1.67818 24.3845 1.89417L18.3329 5.31083V4.16667C18.3311 3.57389 18.0135 3.02701 17.4995 2.73167V0.833333C17.4995 0.373096 17.1264 0 16.6662 0C16.206 0 15.8329 0.373096 15.8329 0.833333V2.5H14.9995V0.833333C14.9995 0.373096 14.6264 0 14.1662 0C13.706 0 13.3329 0.373096 13.3329 0.833333V2.73167C12.8189 3.02701 12.5013 3.57389 12.4995 4.16667V8.60833L6.8037 11.8283C6.43599 12.0355 6.19763 12.4142 6.1699 12.8353C6.14217 13.2564 6.32882 13.6631 6.6662 13.9167V20.7333L0.507862 25.2167C0.0712191 25.5438 -0.107245 26.1136 0.0647297 26.6314C0.236704 27.1492 0.720573 27.499 1.2662 27.5ZM29.1662 35V38.3333H25.8329V30.9167C27.7715 31.3154 29.1637 33.0207 29.1662 35ZM24.1662 38.3333H20.8329V35C20.8354 33.0207 22.2275 31.3154 24.1662 30.9167V38.3333ZM29.9995 40H31.6662V41.6667H18.3329V40H29.9995ZM34.9995 48.3333H14.9995V46.6667H34.9995V48.3333ZM33.3329 45H16.6662V43.3333H33.3329V45ZM46.6662 38.3333H36.6662C36.206 38.3333 35.8329 38.7064 35.8329 39.1667C35.8329 39.6269 36.206 40 36.6662 40H46.6662V41.6667H33.3329V40C33.3329 39.0795 32.5867 38.3333 31.6662 38.3333H30.8329V35C30.8329 31.7783 28.2212 29.1667 24.9995 29.1667C21.7779 29.1667 19.1662 31.7783 19.1662 35V38.3333H18.3329C17.4124 38.3333 16.6662 39.0795 16.6662 40V41.6667H3.33286V40H13.3329C13.7931 40 14.1662 39.6269 14.1662 39.1667C14.1662 38.7064 13.7931 38.3333 13.3329 38.3333H3.33286V27.5H46.6662V38.3333ZM8.33286 14.1667H41.6662V25.8333H8.33286V14.1667ZM47.5045 25.8333H43.3329V22.8025L47.5045 25.8333ZM33.3329 4.16667H35.8329V7.66667L33.3329 6.25V4.16667ZM14.1662 4.16667H16.6662V6.25L14.1662 7.66667V4.16667ZM24.9995 3.4575L40.9995 12.5H8.99953L24.9995 3.4575ZM6.6662 22.7958V25.8333H2.49286L6.6662 22.7958Z" fill="black"/>
<path d="M8.33333 29.166H6.66667C5.74619 29.166 5 29.9122 5 30.8327V35.8327C5 36.7532 5.74619 37.4993 6.66667 37.4993H8.33333C9.25381 37.4993 10 36.7532 10 35.8327V30.8327C10 29.9122 9.25381 29.166 8.33333 29.166ZM6.66667 35.8327V30.8327H8.33333V35.8327H6.66667Z" fill="black"/>
<path d="M15.0013 29.166H13.3346C12.4142 29.166 11.668 29.9122 11.668 30.8327V35.8327C11.668 36.7532 12.4142 37.4993 13.3346 37.4993H15.0013C15.9218 37.4993 16.668 36.7532 16.668 35.8327V30.8327C16.668 29.9122 15.9218 29.166 15.0013 29.166ZM13.3346 35.8327V30.8327H15.0013V35.8327H13.3346Z" fill="black"/>
<path d="M36.6654 29.166H34.9987C34.0782 29.166 33.332 29.9122 33.332 30.8327V35.8327C33.332 36.7532 34.0782 37.4993 34.9987 37.4993H36.6654C37.5858 37.4993 38.332 36.7532 38.332 35.8327V30.8327C38.332 29.9122 37.5858 29.166 36.6654 29.166ZM34.9987 35.8327V30.8327H36.6654V35.8327H34.9987Z" fill="black"/>
<path d="M40 30.8327V35.8327C40 36.7532 40.7462 37.4993 41.6667 37.4993H43.3333C44.2538 37.4993 45 36.7532 45 35.8327V30.8327C45 29.9122 44.2538 29.166 43.3333 29.166H41.6667C40.7462 29.166 40 29.9122 40 30.8327ZM43.3333 35.8327H41.6667V30.8327H43.3333V35.8327Z" fill="black"/>
<path d="M13.3333 15.833H11.6667C10.7462 15.833 10 16.5792 10 17.4997V22.4997C10 23.4201 10.7462 24.1663 11.6667 24.1663H13.3333C14.2538 24.1663 15 23.4201 15 22.4997V17.4997C15 16.5792 14.2538 15.833 13.3333 15.833ZM11.6667 22.4997V17.4997H13.3333V22.4997H11.6667Z" fill="black"/>
<path d="M20.0013 15.833H18.3346C17.4142 15.833 16.668 16.5792 16.668 17.4997V22.4997C16.668 23.4201 17.4142 24.1663 18.3346 24.1663H20.0013C20.9218 24.1663 21.668 23.4201 21.668 22.4997V17.4997C21.668 16.5792 20.9218 15.833 20.0013 15.833ZM18.3346 22.4997V17.4997H20.0013V22.4997H18.3346Z" fill="black"/>
<path d="M31.6654 15.833H29.9987C29.0782 15.833 28.332 16.5792 28.332 17.4997V22.4997C28.332 23.4201 29.0782 24.1663 29.9987 24.1663H31.6654C32.5858 24.1663 33.332 23.4201 33.332 22.4997V17.4997C33.332 16.5792 32.5858 15.833 31.6654 15.833ZM29.9987 22.4997V17.4997H31.6654V22.4997H29.9987Z" fill="black"/>
<path d="M38.3333 15.833H36.6667C35.7462 15.833 35 16.5792 35 17.4997V22.4997C35 23.4201 35.7462 24.1663 36.6667 24.1663H38.3333C39.2538 24.1663 40 23.4201 40 22.4997V17.4997C40 16.5792 39.2538 15.833 38.3333 15.833ZM36.6667 22.4997V17.4997H38.3333V22.4997H36.6667Z" fill="black"/>
</g>
<defs>
<clipPath id="clip0">
<rect width="50" height="50" fill="white"/>
</clipPath>
</defs>
</svg>
