<svg width="50" height="50" viewBox="0 0 50 50" fill="none" xmlns="http://www.w3.org/2000/svg">
<path d="M20.6536 43.6707C20.2734 40.451 17.6663 37.9049 14.4187 37.6194C15.1675 36.7098 15.6177 35.5456 15.6177 34.2781V33.0317C15.6177 30.128 13.2554 27.7656 10.3516 27.7656C7.44775 27.7656 5.08545 30.1279 5.08545 33.0317V34.2781C5.08545 35.5455 5.53564 36.7097 6.28437 37.6194C2.76777 37.9284 0 40.888 0 44.4835V49.0234C0 49.5628 0.437207 50 0.976562 50H19.7266C20.2659 50 20.7031 49.5628 20.7031 49.0234V45.475C20.9707 45.3559 21.1819 45.1183 21.256 44.8115C21.3726 44.328 21.1068 43.8426 20.6536 43.6707ZM7.03857 33.0318C7.03857 31.2051 8.52481 29.7188 10.3516 29.7188C12.1783 29.7188 13.6646 31.2051 13.6646 33.0318V34.2782C13.6646 36.105 12.1783 37.5911 10.3516 37.5911C8.52481 37.5911 7.03857 36.105 7.03857 34.2782V33.0318ZM18.75 48.0469H16.2142V45.1379C16.2142 44.5985 15.777 44.1613 15.2376 44.1613C14.6982 44.1613 14.261 44.5985 14.261 45.1379V48.0469H6.44853V45.1379C6.44853 44.5985 6.01133 44.1613 5.47197 44.1613C4.93262 44.1613 4.49541 44.5985 4.49541 45.1379V48.0469H1.95312V44.4835C1.95312 41.76 4.16885 39.5442 6.89238 39.5442H13.8107C16.5343 39.5442 18.75 41.76 18.75 44.4835V48.0469Z" fill="black"/>
<path d="M25.504 44.1548C25.1676 44.1633 24.8286 44.1633 24.5021 44.1548C23.9626 44.1401 23.5144 44.5662 23.5003 45.1055C23.4862 45.6447 23.9119 46.0932 24.451 46.1073C24.6324 46.112 24.8181 46.1144 25.003 46.1144C25.1851 46.1144 25.3706 46.112 25.5541 46.1073C26.0932 46.0934 26.5192 45.6451 26.5053 45.106C26.4913 44.5668 26.0396 44.1375 25.504 44.1548Z" fill="black"/>
<path d="M15.466 8.6434C15.624 8.6434 15.7842 8.60492 15.9326 8.52406C16.095 8.43549 16.2608 8.34819 16.4257 8.26459C16.9065 8.02045 17.0985 7.43266 16.8544 6.9517C16.6102 6.47075 16.0222 6.27885 15.5415 6.52299C15.3596 6.61528 15.1766 6.71166 14.9975 6.80932C14.524 7.06752 14.3495 7.66069 14.6076 8.13422C14.785 8.45912 15.1201 8.6434 15.466 8.6434Z" fill="black"/>
<path d="M5.19766 22.5839C5.25635 22.5944 5.31475 22.5996 5.37237 22.5996C5.83575 22.5996 6.24698 22.2685 6.33223 21.7964C6.39884 21.4279 6.47735 21.0566 6.56583 20.6929C6.69327 20.1688 6.37169 19.6407 5.84766 19.5133C5.32354 19.3857 4.79542 19.7074 4.66807 20.2315C4.57042 20.6328 4.4837 21.0426 4.41026 21.4492C4.31436 21.9801 4.6669 22.4881 5.19766 22.5839Z" fill="black"/>
<path d="M10.7499 12.2127C11.0032 12.2127 11.2564 12.1148 11.4477 11.9195C11.7099 11.6517 11.9837 11.3882 12.2613 11.1364C12.6608 10.774 12.6908 10.1564 12.3285 9.75696C11.9661 9.35745 11.3484 9.32747 10.9491 9.68977C10.6432 9.96741 10.3414 10.2577 10.0522 10.553C9.6749 10.9383 9.68144 11.5566 10.0667 11.934C10.2567 12.12 10.5034 12.2127 10.7499 12.2127Z" fill="black"/>
<path d="M6.82834 16.8934C6.97199 16.9678 7.12551 17.003 7.27677 17.003C7.63 17.003 7.97092 16.8108 8.14465 16.4756C8.31672 16.1434 8.50138 15.8117 8.69357 15.4895C8.96984 15.0263 8.81818 14.4268 8.355 14.1506C7.89181 13.8745 7.2923 14.026 7.01603 14.4892C6.80412 14.8445 6.60041 15.2105 6.41047 15.577C6.16232 16.0559 6.34943 16.6452 6.82834 16.8934Z" fill="black"/>
<path d="M4.15536 27.0234C4.1995 27.532 4.62596 27.9156 5.12714 27.9156C5.15546 27.9156 5.18397 27.9144 5.21258 27.9118C5.74989 27.8653 6.14774 27.3918 6.10106 26.8545C6.08504 26.6702 6.07157 26.4831 6.06092 26.2985C6.02997 25.76 5.56786 25.3481 5.02987 25.3796C4.49139 25.4106 4.07997 25.8722 4.11102 26.4107C4.12284 26.6141 4.13768 26.8202 4.15536 27.0234Z" fill="black"/>
<path d="M33.5738 8.26543C33.738 8.34873 33.9039 8.43613 34.067 8.525C34.2155 8.60596 34.3756 8.64434 34.5335 8.64434C34.8794 8.64434 35.2147 8.46006 35.3918 8.13496C35.65 7.66133 35.4752 7.06826 35.0018 6.81016C34.822 6.71221 34.639 6.61582 34.4579 6.52393C33.9774 6.27988 33.3892 6.47168 33.1451 6.95264C32.9009 7.4335 33.0929 8.02129 33.5738 8.26543Z" fill="black"/>
<path d="M38.5521 11.9196C38.7433 12.1149 38.9965 12.2129 39.25 12.2129C39.4963 12.2129 39.7431 12.1201 39.9331 11.934C40.3184 11.5567 40.325 10.9383 39.9475 10.553C39.6587 10.2581 39.357 9.96764 39.0506 9.68981C38.651 9.3275 38.0337 9.35738 37.6713 9.75699C37.3089 10.1565 37.3389 10.7741 37.7384 11.1364C38.0163 11.3886 38.29 11.652 38.5521 11.9196Z" fill="black"/>
<path d="M41.8547 16.4756C42.0285 16.8108 42.3695 17.003 42.7226 17.003C42.874 17.003 43.0275 16.9678 43.1712 16.8934C43.65 16.6452 43.8371 16.0559 43.5889 15.5771C43.3992 15.2108 43.1955 14.8448 42.9835 14.4893C42.7074 14.0261 42.1082 13.8744 41.6446 14.1506C41.1814 14.4268 41.0296 15.0263 41.3059 15.4895C41.4981 15.8119 41.6828 16.1438 41.8547 16.4756Z" fill="black"/>
<path d="M43.4342 20.6929C43.5226 21.0566 43.6012 21.4278 43.6678 21.7962C43.7529 22.2683 44.1642 22.5995 44.6276 22.5995C44.6852 22.5995 44.7436 22.5944 44.8022 22.5838C45.333 22.488 45.6856 21.9801 45.5897 21.4493C45.5163 21.0426 45.4296 20.6328 45.3319 20.2314C45.2044 19.7072 44.6766 19.3859 44.1522 19.5132C43.6282 19.6407 43.3066 20.1689 43.4342 20.6929Z" fill="black"/>
<path d="M44.9695 25.3796C44.4316 25.3483 43.9695 25.7601 43.9384 26.2985C43.9279 26.4825 43.9143 26.6695 43.8983 26.8543C43.8515 27.3916 44.2491 27.8652 44.7864 27.9118C44.8153 27.9143 44.8439 27.9155 44.8723 27.9155C45.3734 27.9155 45.7998 27.532 45.844 27.0236C45.8617 26.8198 45.8767 26.6137 45.8883 26.4106C45.9193 25.8722 45.5079 25.4106 44.9695 25.3796Z" fill="black"/>
<path d="M14.6484 16.7178V21.2577C14.6484 21.7971 15.0856 22.2343 15.625 22.2343H20.6055C21.1448 22.2343 21.582 21.7971 21.582 21.2577C21.582 20.7184 21.1448 20.2812 20.6055 20.2812H20.5305V17.3722C20.5305 16.8328 20.0933 16.3956 19.5539 16.3956C19.0146 16.3956 18.5773 16.8328 18.5773 17.3722V20.2812H16.6016V16.7178C16.6016 13.9942 18.8173 11.7785 21.5408 11.7785H28.4592C31.1827 11.7785 33.3984 13.9942 33.3984 16.7178V20.2812H31.4291V17.3722C31.4291 16.8328 30.9918 16.3956 30.4525 16.3956C29.9133 16.3956 29.476 16.8328 29.476 17.3722V20.2812H29.3945C28.8553 20.2812 28.418 20.7184 28.418 21.2577C28.418 21.7971 28.8553 22.2343 29.3945 22.2343H34.375C34.9143 22.2343 35.3516 21.7971 35.3516 21.2577V16.7178C35.3516 13.1223 32.5838 10.1627 29.0672 9.85371C29.8159 8.94394 30.2661 7.77978 30.2661 6.5124V5.26602C30.2661 2.3623 27.9037 0 25 0C22.0963 0 19.7339 2.3623 19.7339 5.26602V6.5124C19.7339 7.77988 20.1841 8.94394 20.9328 9.85371C17.4162 10.1627 14.6484 13.1223 14.6484 16.7178ZM21.687 5.26602C21.687 3.43926 23.1732 1.95312 25 1.95312C26.8268 1.95312 28.313 3.43926 28.313 5.26602V6.5124C28.313 8.33916 26.8268 9.82539 25 9.82539C23.1732 9.82539 21.687 8.33916 21.687 6.5124V5.26602Z" fill="black"/>
<path d="M43.7139 37.6194C44.4626 36.7098 44.9128 35.5456 44.9128 34.2781V33.0317C44.9128 30.128 42.5505 27.7656 39.6467 27.7656C36.7429 27.7656 34.3806 30.1279 34.3806 33.0317V34.2781C34.3806 35.5455 34.8308 36.7097 35.5795 37.6194C32.332 37.9048 29.7249 40.4509 29.3446 43.6707C28.8914 43.8426 28.6256 44.3281 28.7423 44.8117C28.8162 45.1185 29.0274 45.356 29.295 45.4751V49.0234C29.295 49.5628 29.7323 50 30.2716 50H49.0216C49.5608 50 49.9981 49.5628 49.9981 49.0234V44.4835C49.9982 40.888 47.2305 37.9284 43.7139 37.6194ZM36.3337 33.0318C36.3337 31.2051 37.8199 29.7188 39.6467 29.7188C41.4734 29.7188 42.9597 31.2051 42.9597 33.0318V34.2782C42.9597 36.105 41.4734 37.5911 39.6467 37.5911C37.8199 37.5911 36.3337 36.105 36.3337 34.2782V33.0318ZM48.0451 48.0469H45.5093V45.1379C45.5093 44.5985 45.072 44.1613 44.5327 44.1613C43.9935 44.1613 43.5562 44.5985 43.5562 45.1379V48.0469H35.7436V45.1379C35.7436 44.5985 35.3063 44.1613 34.7671 44.1613C34.2278 44.1613 33.7905 44.5985 33.7905 45.1379V48.0469H31.2482V44.4835C31.2482 41.76 33.464 39.5442 36.1875 39.5442H43.1059C45.8294 39.5442 48.0451 41.76 48.0451 44.4835V48.0469Z" fill="black"/>
<path d="M19.3683 36.3211C19.717 36.7325 20.3333 36.7833 20.7446 36.4347L24.9993 32.8283L29.2539 36.4346C29.4374 36.5901 29.6617 36.6662 29.8849 36.6662C30.1619 36.6662 30.4371 36.5489 30.6303 36.3211C30.979 35.9097 30.9282 35.2934 30.5168 34.9447L25.9759 31.0957V25.4346C25.9759 24.8952 25.5386 24.458 24.9993 24.458C24.46 24.458 24.0228 24.8952 24.0228 25.4346V31.0957L19.4819 34.9446C19.0704 35.2934 19.0196 35.9097 19.3683 36.3211Z" fill="black"/>
<path d="M25 22.2344C25.5393 22.2344 25.9766 21.7972 25.9766 21.2578C25.9766 20.7185 25.5393 20.2812 25 20.2812C24.4607 20.2812 24.0234 20.7185 24.0234 21.2578C24.0234 21.7972 24.4607 22.2344 25 22.2344Z" fill="black"/>
</svg>
