<svg width="50" height="50" viewBox="0 0 50 50" fill="none" xmlns="http://www.w3.org/2000/svg">
<path d="M20.9831 44.6665C20.6207 43.3783 19.6322 42.36 18.3551 41.9587L14.0329 40.5574V38.7515C15.6061 37.7805 16.7009 36.1946 17.0511 34.3788L17.2849 33.5753C18.3468 33.1807 18.9446 32.0533 18.6755 30.9529C18.5417 30.3892 18.1459 29.9235 17.6108 29.7008V26.893C17.6108 22.9979 14.4533 19.8403 10.5581 19.8403C6.66298 19.8403 3.50543 22.9979 3.50543 26.893V29.7004C2.96911 29.9227 2.57253 30.3888 2.43836 30.9533C2.16921 32.0537 2.76745 33.1811 3.82936 33.5753L4.06318 34.3788C4.41332 36.1946 5.50818 37.7805 7.0814 38.7515V40.5574L2.75911 41.9587C1.48204 42.36 0.493568 43.3787 0.131128 44.6672C0.117234 44.7165 0.104928 44.7665 0.0930186 44.8165C0.0291054 45.0992 -0.00225571 45.3886 0.000126151 45.6784V48.9133C0.000126151 49.2499 0.273246 49.5231 0.609882 49.5231H20.5048C20.8414 49.5231 21.1145 49.2499 21.1145 48.9133V45.6784C21.1169 45.3882 21.0855 45.0988 21.0212 44.8161C21.0093 44.7661 20.9966 44.7165 20.9831 44.6665ZM11.0607 27.2106C11.6169 27.7799 13.0146 28.9728 15.3461 29.4944C13.809 29.3332 11.4422 28.8676 9.38188 27.5397C9.97019 27.4512 10.5299 27.3416 11.0607 27.2106ZM4.72574 26.893C4.72574 23.6716 7.33745 21.0598 10.5593 21.0598C13.7808 21.0598 16.3925 23.6716 16.3925 26.893V28.4432C14.4667 28.184 13.1595 27.3845 12.433 26.8021C13.4203 26.4679 14.3488 25.9804 15.1849 25.3575C15.3627 25.2269 15.456 25.0102 15.429 24.791C15.4016 24.5719 15.2579 24.3845 15.0535 24.3016C14.849 24.2182 14.6152 24.2523 14.4429 24.3901C11.283 26.8136 5.61258 26.5576 5.55581 26.5548C5.39385 26.5465 5.23506 26.6032 5.11517 26.712C4.99489 26.8212 4.92303 26.9736 4.91589 27.136L4.8091 29.4754C4.80751 29.5432 4.77774 29.6071 4.72693 29.652L4.72574 26.893ZM5.25649 34.1236C5.25292 34.1045 5.24816 34.085 5.2426 34.0664L4.92264 32.9652C4.8754 32.7159 4.6785 32.5221 4.4288 32.4785C4.15369 32.4297 3.91114 32.2689 3.7587 32.0351C3.60626 31.8008 3.55704 31.5142 3.62373 31.2427C3.6674 31.0513 3.80396 30.8941 3.98736 30.8239C4.43118 31.0089 4.93732 30.9656 5.34343 30.7084C5.74954 30.4507 6.0044 30.0113 6.02663 29.5313L6.10602 27.785H6.10801C6.47521 27.785 6.98771 27.7747 7.59548 27.733C11.418 30.97 16.7942 30.8028 17.0249 30.7941C17.028 30.7941 17.0308 30.7933 17.0336 30.7933C17.2603 30.8421 17.4381 31.0172 17.4909 31.2427C17.5572 31.5142 17.5084 31.8008 17.3559 32.0347C17.2031 32.2689 16.961 32.4293 16.6858 32.4785C16.4485 32.5229 16.2587 32.7016 16.2003 32.9358L15.872 34.066C15.8665 34.085 15.8617 34.1041 15.8582 34.1236C15.3786 36.6737 13.1516 38.5209 10.5569 38.5209C7.96189 38.5209 5.73485 36.6737 5.2553 34.1236H5.25649ZM10.5573 39.7412C11.3267 39.7416 12.0901 39.6074 12.8133 39.3446V40.6272C11.3795 41.2759 9.73518 41.2759 8.3013 40.6272V39.3438C9.0242 39.607 9.78798 39.7412 10.5573 39.7412ZM19.895 48.304H1.21964V45.6784C1.21765 45.4818 1.2379 45.2857 1.28077 45.094C1.28911 45.0591 1.29784 45.0237 1.30737 44.9896C1.56183 44.0972 2.2494 43.3937 3.13545 43.1186L7.6324 41.6605C9.47914 42.5577 11.6351 42.5577 13.4818 41.6605L17.9788 43.1186C18.8649 43.3937 19.552 44.0968 19.8069 44.9888C19.8164 45.0237 19.8251 45.0587 19.8335 45.0936C19.876 45.2853 19.8966 45.4814 19.8942 45.678L19.895 48.304Z" fill="black"/>
<path d="M41.481 46.2246H40.8598C40.5231 46.2246 40.25 46.4973 40.25 46.8344C40.25 47.171 40.5231 47.4441 40.8598 47.4441H41.481C41.8177 47.4441 42.0908 47.171 42.0908 46.8344C42.0908 46.4973 41.8177 46.2246 41.481 46.2246Z" fill="black"/>
<path d="M47.4728 41.5533L44.771 40.6379C46.634 39.6832 47.6312 37.603 47.2084 35.5526L46.6936 33.0568C47.3922 32.561 47.7174 31.6889 47.5137 30.8568C47.3899 30.3364 47.0286 29.9041 46.5383 29.6901L46.5471 27.236C46.5606 24.6906 45.2132 22.3321 43.0136 21.0511C40.8139 19.7704 38.0978 19.7625 35.8906 21.03C33.6838 22.298 32.3222 24.6485 32.3206 27.1939L32.3274 29.4194V29.4336L32.3333 29.6937C31.8474 29.9092 31.4898 30.3391 31.3667 30.8564C31.1456 31.7619 31.5509 32.7043 32.3607 33.1664L31.7553 35.4407C31.2103 37.4867 32.1138 39.6431 33.9542 40.6899L31.408 41.5529C29.8983 42.0639 28.8824 43.4807 28.8828 45.0745V48.9121C28.8828 49.2491 29.1559 49.5219 29.4926 49.5219H49.3878C49.7249 49.5219 49.9976 49.2491 49.9976 48.9121V45.0753C49.9984 43.4815 48.9825 42.0646 47.4728 41.5533ZM36.6683 41.0587L38.8247 43.2091V44.5684L35.5909 41.4235L36.6683 41.0587ZM38.8747 39.5982H40.0065C40.4904 39.5978 40.9723 39.5359 41.4408 39.4144V40.1064L39.4408 42.1012L37.4404 40.1064V39.4148C37.9089 39.5363 38.3908 39.5978 38.8747 39.5982ZM40.0442 43.2214L42.2133 41.0587L43.2903 41.4235L40.0438 44.5807L40.0442 43.2214ZM45.3335 38.6379C44.6968 39.4375 43.7369 39.911 42.7155 39.9297V39.9408L42.6603 39.9222V38.9527C44.1613 38.1691 45.3172 36.8559 45.904 35.2676L46.0135 35.7988C46.2216 36.7995 45.9719 37.8404 45.3331 38.6383L45.3335 38.6379ZM39.4345 21.2984C41.0041 21.2984 42.509 21.9244 43.6154 23.038C44.7218 24.1515 45.3383 25.6604 45.328 27.23L45.3208 29.2062C43.7718 29.0875 42.3018 28.4765 41.1248 27.4627C42.0628 26.6627 42.8477 25.6985 43.4399 24.6171C43.5511 24.4274 43.5511 24.1924 43.4399 24.0026C43.3292 23.8125 43.1247 23.6969 42.9048 23.7001C42.6849 23.7033 42.4836 23.8248 42.3784 24.0177C40.1264 28.0033 36.8783 28.1844 35.317 28.2721L35.2936 28.2733C34.8379 28.2987 34.4111 28.6123 34.1797 29.0918C34.1424 29.1681 34.08 29.2288 34.0034 29.2645C33.8569 29.3336 33.6831 29.3038 33.5687 29.1895L33.5465 29.1673L33.5405 27.1923C33.5441 23.9387 36.1808 21.302 39.4345 21.2984ZM32.5521 31.147C32.6041 30.9322 32.7899 30.7766 33.0102 30.7627C33.2003 30.7453 33.371 30.6397 33.4719 30.4773C34.2003 30.6496 34.9506 30.2939 35.2785 29.6214C35.3011 29.5698 35.3361 29.5249 35.3801 29.49H35.3845C36.394 29.4336 38.2388 29.33 40.1093 28.1907C41.5559 29.5269 43.4213 30.3201 45.3871 30.4344C45.4816 30.6194 45.6638 30.7433 45.8706 30.7631C46.091 30.777 46.2767 30.9326 46.3287 31.1474C46.3859 31.3804 46.3438 31.6265 46.2128 31.827C46.0818 32.0279 45.8738 32.166 45.6376 32.2077C45.3446 32.2629 45.1327 32.5193 45.1331 32.8175C45.1215 34.2514 44.5844 35.6312 43.6233 36.6955C42.6404 37.7817 41.3558 38.3799 40.0057 38.3799H38.8735C37.5234 38.3799 36.2388 37.7817 35.2563 36.6955C34.294 35.6285 33.7573 34.245 33.7478 32.8083C33.7478 32.5122 33.535 32.2585 33.2432 32.2077C32.8284 32.1355 32.5263 31.7746 32.5275 31.3538C32.5275 31.2843 32.5354 31.2149 32.5521 31.147ZM33.4441 38.6181C32.8585 37.786 32.672 36.7376 32.9344 35.7547L33.0276 35.4054C33.6299 36.9341 34.7636 38.1941 36.2209 38.9531V39.9226L35.8438 40.0504C34.876 39.9372 34.0026 39.416 33.4441 38.6181ZM30.1031 45.0753C30.1027 44.0039 30.7855 43.0519 31.8002 42.7085L34.294 41.8634L38.8251 46.2698V48.3031H30.1035L30.1031 45.0753ZM48.7781 48.3031H40.0442V46.2817L44.588 41.8634L47.0814 42.7085C48.0961 43.0519 48.7785 44.0043 48.7781 45.0753V48.3031Z" fill="black"/>
<path d="M17.0951 20.7593H32.9043C33.2413 20.7593 33.5141 20.4861 33.5141 20.1495V8.07071L35.8197 9.74952C35.9956 9.87973 36.2282 9.90593 36.4287 9.8174C36.6291 9.72927 36.7669 9.53992 36.7891 9.32237C36.8117 9.10443 36.7157 8.89126 36.5378 8.76343L33.5141 6.56219V2.73018C33.5141 2.39315 33.2413 2.12042 32.9043 2.12042C32.5677 2.12042 32.2945 2.39315 32.2945 2.73018V5.67455L25.3586 0.625012C25.1446 0.469397 24.8548 0.469397 24.6408 0.625012L13.462 8.76383C13.2837 8.89126 13.1877 9.10443 13.2103 9.32237C13.2329 9.54031 13.3707 9.72927 13.5712 9.8178C13.7716 9.90593 14.0039 9.88013 14.1801 9.74952L16.4854 8.0711V20.1495C16.4854 20.4861 16.7585 20.7593 17.0951 20.7593ZM24.9997 1.87192L32.2945 7.18307V19.5398H17.7049V7.18307L24.9997 1.87192Z" fill="black"/>
<path d="M24.9983 13.0964C25.7089 13.0924 26.2876 13.6652 26.2912 14.3754C26.2952 15.086 25.7224 15.6648 25.0122 15.6684C25.0074 15.6684 25.003 15.668 24.9983 15.668C24.9939 15.668 24.9891 15.6684 24.9848 15.6684C24.2801 15.6604 23.7129 15.0876 23.7121 14.383C23.7121 14.0459 23.4389 13.7732 23.1023 13.7732C22.7653 13.7732 22.4926 14.0459 22.4926 14.383C22.4941 15.5314 23.275 16.5326 24.3885 16.8133V17.4071C24.3885 17.7442 24.6616 18.0169 24.9983 18.0169C25.3353 18.0169 25.608 17.7442 25.608 17.4071V16.8133C26.8355 16.5056 27.6405 15.3314 27.4853 14.0757C27.3305 12.8201 26.2634 11.8769 24.9983 11.8769C24.2881 11.8769 23.7121 11.3008 23.7121 10.5903C23.7121 9.87967 24.2881 9.30366 24.9987 9.30406C25.7089 9.30406 26.2849 9.88007 26.2849 10.5907C26.2849 10.9273 26.558 11.2004 26.8946 11.2004C27.2313 11.2004 27.5044 10.9273 27.5044 10.5907C27.5028 9.44181 26.7219 8.44063 25.608 8.15997V7.65224C25.608 7.3156 25.3353 7.04248 24.9983 7.04248C24.6616 7.04248 24.3885 7.3156 24.3885 7.65224V8.15997C23.1615 8.46763 22.3564 9.64188 22.5112 10.8975C22.6664 12.1532 23.7331 13.0964 24.9983 13.0964Z" fill="black"/>
</svg>
