<svg width="50" height="50" viewBox="0 0 50 50" fill="none" xmlns="http://www.w3.org/2000/svg">
<path d="M4.88281 44.1396C4.34341 44.1396 3.90625 44.5768 3.90625 45.1162V45.117C3.90625 45.656 4.34341 46.0932 4.88281 46.0932C5.42221 46.0932 5.85938 45.6556 5.85938 45.1162C5.85938 44.5768 5.42221 44.1396 4.88281 44.1396Z" fill="black"/>
<path d="M49.0224 0H41.2099C40.6705 0 40.2334 0.437164 40.2334 0.976562V1.99585L38.9303 1.98784C38.9284 1.98784 38.9261 1.98784 38.9242 1.98784C38.3878 1.98784 37.9511 2.42081 37.9476 2.95792C37.9442 3.49731 38.3787 3.93753 38.9181 3.94096L40.2334 3.94897V14.0808C37.6764 15.6914 35.3685 14.764 32.9324 13.7829C31.3272 13.1363 29.6667 12.468 28.01 12.6759C27.4873 12.7415 26.0767 12.9463 24.5836 13.163C23.1687 13.3682 21.7054 13.5807 21.2023 13.644C20.9463 13.6761 20.6911 13.6047 20.4836 13.4434C20.2718 13.2782 20.1368 13.0413 20.104 12.7758C20.0826 12.603 20.0258 12.1433 21.2496 11.5753C23.8401 10.3741 26.6008 9.34563 28.824 8.75397C29.3451 8.61511 29.6552 8.08029 29.5164 7.55882C29.3779 7.03773 28.8431 6.72798 28.3216 6.86646C25.9939 7.48596 23.1165 8.55675 20.4279 9.80377C19.4925 10.2375 18.9176 10.7422 18.5789 11.2511L8.78809 13.921C7.75812 14.18 7.22979 13.7699 7.07834 13.2996C6.92957 12.8365 7.10924 12.2395 7.84586 11.9488C8.61223 11.657 10.4414 10.8517 12.7561 9.83315C15.8239 8.48312 19.6413 6.80275 22.6854 5.56793C26.3029 4.10042 27.4053 3.87917 31.109 3.89252H31.1121C31.6499 3.89252 32.0867 3.45726 32.0886 2.91901C32.0902 2.37961 31.6541 1.94092 31.1147 1.93939C27.1642 1.92604 25.7936 2.19955 21.9515 3.75824C18.8806 5.00374 15.0488 6.69022 11.9695 8.0452C9.7658 9.01527 7.86226 9.85298 7.14586 10.1254C7.14281 10.1265 7.13976 10.1276 7.13671 10.1288C5.31214 10.8444 4.79105 12.5664 5.21906 13.8973C5.64059 15.2088 7.09017 16.3673 9.27637 15.8123C9.28209 15.8108 9.28743 15.8096 9.29316 15.8077L18.2314 13.3705C18.3901 14.0091 18.7555 14.5733 19.2838 14.9845C19.9037 15.4671 20.6716 15.6792 21.4456 15.5819C21.9675 15.5163 23.3743 15.3118 24.864 15.0959C26.2827 14.8899 27.749 14.677 28.2533 14.6137C29.4073 14.4688 30.7653 15.0154 32.2027 15.5945C33.7259 16.2079 35.4612 16.9071 37.3392 16.9067C38.2715 16.9067 39.2393 16.7328 40.2334 16.2918V16.6016C40.2334 17.141 40.6705 17.5781 41.2099 17.5781H49.0224C49.5618 17.5781 49.999 17.141 49.999 16.6016V0.976562C49.999 0.437164 49.5618 0 49.0224 0ZM48.0459 15.625H42.1865V2.98576V2.985C42.1865 2.985 42.1865 2.98424 42.1865 2.98386V1.95312H48.0459V15.625Z" fill="black"/>
<path d="M45.1172 5.86024C45.6566 5.86024 46.0938 5.42308 46.0938 4.88368V4.88292C46.0938 4.3439 45.6566 3.90674 45.1172 3.90674C44.5778 3.90674 44.1406 4.34428 44.1406 4.88368C44.1406 5.42308 44.5778 5.86024 45.1172 5.86024Z" fill="black"/>
<path d="M18.1641 31.8359C20.4815 31.8359 22.5323 30.6755 23.769 28.9062H27.3769C27.636 28.9062 27.8843 28.8033 28.0674 28.6201L29.7344 26.9531H30.8788L32.5459 28.6201C32.729 28.8033 32.9773 28.9062 33.2363 28.9062H34.7656C35.0246 28.9062 35.273 28.8033 35.4561 28.6201L38.3858 25.6905C38.5689 25.5074 38.6719 25.259 38.6719 25V22.0703C38.6719 21.5313 38.2347 21.0938 37.6953 21.0938H23.7694C22.5323 19.3245 20.4819 18.1641 18.1641 18.1641C14.3948 18.1641 11.3281 21.2307 11.3281 25C11.3281 28.7693 14.3948 31.8359 18.1641 31.8359ZM36.7188 23.0469V24.5956L34.3613 26.9531H33.6411L31.9736 25.2861C31.7905 25.103 31.5422 25 31.2832 25H29.3301C29.071 25 28.8227 25.103 28.6396 25.2861L26.9726 26.9531H24.7143C24.8993 26.334 25 25.6786 25 25C25 24.3214 24.8993 23.666 24.7143 23.0469H36.7188ZM18.1641 20.1172C20.8565 20.1172 23.0469 22.3076 23.0469 25C23.0469 27.6924 20.8565 29.8828 18.1641 29.8828C15.4716 29.8828 13.2812 27.6924 13.2812 25C13.2812 22.3076 15.4716 20.1172 18.1641 20.1172Z" fill="black"/>
<path d="M16.2109 25.9765C16.7503 25.9765 17.1875 25.5389 17.1875 24.9995C17.1875 24.4601 16.7503 24.0229 16.2109 24.0229C15.6715 24.0229 15.2344 24.4601 15.2344 24.9995V25.0003C15.2344 25.5397 15.6715 25.9765 16.2109 25.9765Z" fill="black"/>
<path d="M35.0195 3.9165H35.0199C35.5593 3.9165 35.9961 3.47896 35.9961 2.93994C35.9961 2.40054 35.5585 1.96338 35.0195 1.96338C34.4801 1.96338 34.043 2.40054 34.043 2.93994C34.043 3.47896 34.4801 3.9165 35.0195 3.9165Z" fill="black"/>
<path d="M40.7227 34.1878C40.7169 34.1893 40.7116 34.1905 40.7059 34.1924L31.7677 36.6296C31.609 35.991 31.2435 35.4268 30.7152 35.0156C30.0953 34.533 29.3274 34.3209 28.5534 34.4182C28.0315 34.4838 26.6247 34.6883 25.135 34.9042C23.7164 35.1102 22.25 35.3231 21.7457 35.3864C20.5921 35.531 19.2337 34.9847 17.7963 34.4056C15.5167 33.4878 12.7613 32.3785 9.76562 33.7072V33.3989C9.76562 32.8595 9.32846 32.4224 8.78906 32.4224H0.976562C0.437164 32.4224 0 32.8595 0 33.3989V49.0235C0 49.5629 0.437164 50.0001 0.976562 50.0001H8.78906C9.32846 50.0001 9.76562 49.5629 9.76562 49.0235V48.0043L11.0687 48.0123H11.0748C11.6112 48.0123 12.048 47.5793 12.0514 47.0418C12.0548 46.5028 11.6203 46.0626 11.0809 46.0591L9.76562 46.0511V35.9193C12.3226 34.3087 14.6305 35.2361 17.0666 36.2168C18.6722 36.8638 20.3331 37.5322 21.9891 37.3239C22.5121 37.2583 23.9223 37.0538 25.4154 36.8371C26.8303 36.6315 28.2936 36.4194 28.7968 36.3561C29.0527 36.324 29.3079 36.395 29.5155 36.5567C29.7276 36.7219 29.8622 36.9588 29.895 37.2243C29.9164 37.3971 29.9736 37.8568 28.7495 38.4244C26.1589 39.626 23.3986 40.6545 21.1754 41.2461C20.6543 41.385 20.3442 41.9198 20.4826 42.4409C20.6215 42.9624 21.1567 43.2717 21.6774 43.1337C24.0051 42.5141 26.8826 41.4434 29.5715 40.1963C30.5065 39.7626 31.0814 39.2579 31.4205 38.749L41.2109 36.0791C42.2405 35.8197 42.7692 36.2302 42.9207 36.7005C43.0695 37.1637 42.8898 37.7607 42.1535 38.0513C41.3876 38.3432 39.5576 39.1484 37.2425 40.1673C34.1751 41.5174 30.3577 43.1974 27.3136 44.4322C23.6961 45.8997 22.5914 46.1217 18.89 46.1076C18.8892 46.1076 18.8881 46.1076 18.8869 46.1076C18.3491 46.1076 17.9123 46.5428 17.9104 47.0811C17.9089 47.6205 18.3449 48.0592 18.8843 48.0607C18.964 48.0611 19.0426 48.0611 19.1204 48.0611C22.8916 48.0611 24.2832 47.7693 28.0476 46.2419C31.118 44.9964 34.9503 43.3099 38.0291 41.9549C40.2332 40.9848 42.1368 40.1471 42.8528 39.8748C42.8558 39.8736 42.8589 39.8725 42.8623 39.8713C44.6869 39.1557 45.208 37.4337 44.78 36.1028C44.3584 34.7917 42.9089 33.6331 40.7227 34.1878ZM1.95312 48.047V34.3751H7.8125V47.0155V47.0166V48.047H1.95312Z" fill="black"/>
<path d="M14.9809 46.0835H14.9801C14.4407 46.0835 14.0039 46.521 14.0039 47.0601C14.0039 47.5995 14.4415 48.0366 14.9809 48.0366C15.5202 48.0366 15.9574 47.5995 15.9574 47.0601C15.9574 46.521 15.5202 46.0835 14.9809 46.0835Z" fill="black"/>
</svg>
