<svg width="50" height="50" viewBox="0 0 50 50" fill="none" xmlns="http://www.w3.org/2000/svg">
<path d="M48.0727 22.0709H34.2364V20.2934C34.2364 18.7276 33.05 17.4536 31.5917 17.4536C30.1334 17.4536 28.947 18.7276 28.947 20.2934V22.0709H15.1108C14.1145 22.0709 13.2923 22.8869 13.1935 23.9292C13.1869 23.9987 13.1835 24.0692 13.1835 24.1405V37.6592C13.1835 38.8004 14.0481 39.7288 15.1108 39.7288H17.4443V45.365H7.38711V18.0374L24.2134 6.01902L41.0396 18.0375V20.2201C41.0396 20.6444 41.3599 20.9882 41.7549 20.9882C42.1499 20.9882 42.4702 20.6444 42.4702 20.2201V19.0593L44.6383 20.6079C45.4586 21.1939 46.5186 21.1939 47.339 20.6079C48.02 20.1215 48.4267 19.3066 48.4267 18.4282C48.4267 17.5499 48.02 16.7351 47.339 16.2487L24.9062 0.225472C24.4853 -0.0751575 23.9415 -0.0751575 23.5207 0.225472L10.5046 9.52256C10.1757 9.75744 10.0863 10.2342 10.3052 10.5875C10.524 10.9407 10.9682 11.0366 11.297 10.8015L24.2134 1.57563L46.5467 17.5277C46.8322 17.7317 46.9961 18.0599 46.9961 18.4283C46.9961 18.7967 46.8322 19.1249 46.5467 19.3289C46.2077 19.5711 45.7697 19.5711 45.4308 19.3289L24.9062 4.66875C24.4853 4.36823 23.9415 4.36802 23.5207 4.66875L2.9959 19.3289C2.65703 19.5709 2.21904 19.5711 1.88008 19.3288C1.59443 19.1249 1.43066 18.7967 1.43066 18.4283C1.43066 18.0599 1.59443 17.7317 1.88008 17.5277L7.59639 13.4447C7.92529 13.2098 8.01465 12.733 7.7958 12.3797C7.57695 12.0267 7.13291 11.9306 6.804 12.1657L1.0877 16.2486C0.406641 16.7351 0 17.5498 0 18.4283C0 19.3068 0.406641 20.1216 1.0877 20.6079C1.49795 20.901 1.96787 21.0475 2.43809 21.0475C2.90811 21.0474 3.37832 20.9009 3.78838 20.6079L5.95645 19.0593V45.365H3.21494C2.0248 45.365 1.05664 46.4047 1.05664 47.6825C1.05664 48.9604 2.0248 50 3.21494 50H45.2118C46.402 50 47.3701 48.9603 47.3701 47.6825C47.3701 46.4046 46.402 45.365 45.2118 45.365H42.4703V41.5793C42.4703 41.1551 42.15 40.8112 41.755 40.8112C41.36 40.8112 41.0396 41.1551 41.0396 41.5793V45.365H34.2365V39.7288H48.0727C49.1354 39.7288 50 38.8004 50 37.6592V24.1405C50 22.9993 49.1354 22.0709 48.0727 22.0709ZM30.3776 20.2934C30.3776 19.5746 30.9223 18.9898 31.5917 18.9898C32.2611 18.9898 32.8058 19.5746 32.8058 20.2934V22.0709H30.3776V20.2934ZM28.947 48.4638H3.21494C2.81377 48.4638 2.4873 48.1134 2.4873 47.6825C2.4873 47.2517 2.81367 46.9012 3.21494 46.9012H28.947V48.4638ZM28.947 45.365H18.875V39.7288H28.947V45.365ZM32.8058 48.4638H30.3776V39.7287H32.8058V48.4638ZM45.2118 46.9012C45.613 46.9012 45.9395 47.2517 45.9395 47.6825C45.9395 48.1134 45.6131 48.4638 45.2118 48.4638H34.2364V46.9012H45.2118ZM48.0727 38.1926H15.1108C14.8369 38.1926 14.6142 37.9534 14.6142 37.6592V24.1405C14.6142 23.8465 14.8369 23.6072 15.1108 23.6072L48.0727 23.6071C48.3466 23.6071 48.5693 23.8463 48.5693 24.1405V37.6592C48.5693 37.9533 48.3466 38.1926 48.0727 38.1926Z" fill="black"/>
<path d="M24.2096 9.40088C21.7247 9.40088 19.7031 11.5716 19.7031 14.2397C19.7031 16.9078 21.7247 19.0786 24.2096 19.0786C26.6944 19.0786 28.716 16.9079 28.716 14.2397C28.716 11.5717 26.6944 9.40088 24.2096 9.40088ZM23.4942 17.4512C22.371 17.1627 21.4856 16.2111 21.218 15.0045H23.4942V17.4512ZM23.4942 13.4683H21.2194C21.4888 12.2648 22.373 11.3162 23.4942 11.0283V13.4683ZM24.9249 11.0283C26.0462 11.3162 26.9305 12.2649 27.1997 13.4683H24.9249V11.0283ZM24.9249 17.4512V15.0045H27.2011C26.9335 16.2111 26.0481 17.1626 24.9249 17.4512Z" fill="black"/>
<path d="M24.9873 34.0847L23.6293 31.3801C24.4066 31.1242 24.9871 30.4341 24.9871 29.1541C24.9871 27.3845 23.8884 26.8281 22.5306 26.8281H20.4783C20.2192 26.8281 20.043 27.0396 20.043 27.2732V34.5076C20.043 34.8081 20.385 34.9639 20.7167 34.9639C21.0587 34.9639 21.3904 34.8081 21.3904 34.5076V31.6027H22.2611L23.733 34.6745C23.8367 34.8971 24.0129 35.0196 24.1995 35.0196C24.5934 35.0196 25.0391 34.63 25.0391 34.2628C25.0391 34.2184 25.0287 34.1403 24.9873 34.0847ZM22.5306 30.4676H21.3904V28.0969H22.5306C23.2044 28.0969 23.6396 28.4086 23.6396 29.2878C23.6396 30.1671 23.2043 30.4676 22.5306 30.4676Z" fill="black"/>
<path d="M30.4371 33.6951H27.5037V31.458H29.0792C29.3694 31.458 29.5042 31.1575 29.5042 30.9015C29.5042 30.601 29.3486 30.3226 29.0792 30.3226H27.5037V28.0967H30.4371V28.0969C30.7065 28.0969 30.8621 27.7964 30.8621 27.4513C30.8621 27.1509 30.7273 26.8281 30.4371 26.8281H26.7471C26.4465 26.8281 26.1562 26.9839 26.1562 27.2845V34.5076C26.1562 34.8081 26.4465 34.9639 26.7471 34.9639H30.4371C30.7273 34.9639 30.8621 34.641 30.8621 34.3406C30.8621 33.9955 30.7065 33.6951 30.4371 33.6951Z" fill="black"/>
<path d="M36.2245 26.8281C35.8825 26.8281 35.5508 26.9616 35.5508 27.2732V31.7474L33.5502 27.5961C33.2289 26.9394 33.0319 26.8281 32.5448 26.8281C32.2028 26.8281 31.8711 26.9728 31.8711 27.2845V34.5076C31.8711 34.8081 32.2027 34.9639 32.5448 34.9639C32.8765 34.9639 33.2186 34.8081 33.2186 34.5076V30.0334L35.4472 34.5076C35.6234 34.8525 35.9032 34.9639 36.2245 34.9639C36.5562 34.9639 36.8982 34.8081 36.8982 34.5076V27.2734C36.8982 26.9617 36.5563 26.8281 36.2245 26.8281Z" fill="black"/>
<path d="M42.6571 26.8281H38.2727C37.9824 26.8281 37.8477 27.1621 37.8477 27.4736C37.8477 27.8297 38.0032 28.1304 38.2727 28.1304H39.7963V34.5077C39.7963 34.8082 40.1279 34.964 40.4701 34.964C40.8018 34.964 41.1438 34.8082 41.1438 34.5077V28.1304H42.6571C42.9266 28.1304 43.082 27.8187 43.082 27.4736C43.082 27.1621 42.9474 26.8281 42.6571 26.8281Z" fill="black"/>
</svg>
