<svg width="50" height="50" viewBox="0 0 50 50" fill="none" xmlns="http://www.w3.org/2000/svg">
<path d="M44.7156 22.5004H43.7V16.5043C43.7 16.323 43.628 16.1491 43.4998 16.0209C43.3716 15.8927 43.1977 15.8207 43.0164 15.8207H34.6906V14.766H37.9133C38.0946 14.766 38.2685 14.694 38.3967 14.5658C38.5249 14.4376 38.5969 14.2637 38.5969 14.0824V9.95505C38.5969 9.77375 38.5249 9.59987 38.3967 9.47167C38.2685 9.34347 38.0946 9.27145 37.9133 9.27145H30.1008C29.9195 9.27145 29.7456 9.34347 29.6174 9.47167C29.4892 9.59987 29.4172 9.77375 29.4172 9.95505V14.084C29.4172 14.2653 29.4892 14.4391 29.6174 14.5673C29.7456 14.6955 29.9195 14.7675 30.1008 14.7675H33.3234V15.8222H24.998C24.8167 15.8222 24.6429 15.8943 24.5147 16.0225C24.3865 16.1507 24.3145 16.3245 24.3145 16.5058V22.5004H20.5363V19.7058C20.5344 18.292 20.1108 16.9109 19.3197 15.7392C18.5285 14.5675 17.4059 13.6583 16.0953 13.1281C16.9143 12.5578 17.5299 11.7411 17.8525 10.7968C18.1752 9.85241 18.188 8.82973 17.8892 7.87758C17.5904 6.92543 16.9954 6.09349 16.191 5.50287C15.3866 4.91224 14.4147 4.59375 13.4168 4.59375C12.4188 4.59375 11.4469 4.91224 10.6425 5.50287C9.83814 6.09349 9.24323 6.92543 8.9444 7.87758C8.64556 8.82973 8.6584 9.85241 8.98105 10.7968C9.30369 11.7411 9.91931 12.5578 10.7383 13.1281C9.42761 13.6583 8.30489 14.5674 7.51371 15.7391C6.72253 16.9109 6.29885 18.292 6.29688 19.7058V22.5004H5.28125C5.09995 22.5004 4.92608 22.5724 4.79788 22.7006C4.66968 22.8288 4.59766 23.0027 4.59766 23.184V27.1488C4.59766 27.3301 4.66968 27.504 4.79788 27.6322C4.92608 27.7604 5.09995 27.8324 5.28125 27.8324H6.29688V44.7179C6.29688 44.8992 6.3689 45.0731 6.4971 45.2013C6.62529 45.3295 6.79917 45.4015 6.98047 45.4015H43.0156C43.1969 45.4015 43.3708 45.3295 43.499 45.2013C43.6272 45.0731 43.6992 44.8992 43.6992 44.7179V27.8324H44.7148C44.8961 27.8324 45.07 27.7604 45.1982 27.6322C45.3264 27.504 45.3984 27.3301 45.3984 27.1488V23.1855C45.3986 23.0957 45.3811 23.0067 45.3469 22.9236C45.3127 22.8405 45.2625 22.765 45.199 22.7014C45.1356 22.6378 45.0603 22.5873 44.9773 22.5528C44.8944 22.5183 44.8055 22.5005 44.7156 22.5004ZM30.7844 10.6386H37.2297V13.3988H30.7844V10.6386ZM25.6816 17.1879H42.332V22.5004H25.6816V17.1879ZM10.0957 9.28669C10.0957 8.62999 10.2904 7.98804 10.6553 7.44202C11.0201 6.896 11.5387 6.47043 12.1454 6.21912C12.7521 5.96781 13.4197 5.90206 14.0638 6.03017C14.7079 6.15829 15.2995 6.47452 15.7638 6.93887C16.2282 7.40323 16.5444 7.99485 16.6725 8.63893C16.8006 9.283 16.7349 9.95061 16.4836 10.5573C16.2323 11.164 15.8067 11.6826 15.2607 12.0474C14.7147 12.4123 14.0727 12.607 13.416 12.607C12.5359 12.6058 11.6921 12.2555 11.0698 11.6331C10.4476 11.0107 10.0975 10.1668 10.0965 9.28669H10.0957ZM7.66406 19.7058C7.66572 18.1861 8.27022 16.7291 9.34492 15.6545C10.4196 14.5799 11.8767 13.9756 13.3965 13.9742H13.4387C14.9581 13.9762 16.4147 14.5807 17.489 15.6552C18.5632 16.7297 19.1675 18.1864 19.1691 19.7058V22.5004H7.66406V19.7058ZM42.332 44.0343H7.66406V27.8324H42.332V44.0343ZM44.032 26.4652H5.96406V23.8675H44.0316L44.032 26.4652Z" fill="black"/>
</svg>
