<svg width="30" height="30" viewBox="0 0 30 30" fill="none" xmlns="http://www.w3.org/2000/svg">
<path d="M22.2135 0H7.78548C3.27387 0 0 3.27484 0 7.78645V22.2135C0 26.7252 3.27387 30 7.78548 30H22.2135C26.7252 30 30 26.7252 30 22.2135V7.78645C30 3.27484 26.7252 0 22.2135 0ZM28.0645 22.2135C28.0645 25.6587 25.6587 28.0645 22.2135 28.0645H7.78548C4.34129 28.0645 1.93548 25.6587 1.93548 22.2135V7.78645C1.93548 4.34129 4.34129 1.93548 7.78548 1.93548H22.2135C25.6587 1.93548 28.0645 4.34129 28.0645 7.78645V22.2135Z" fill="#FFBC68"/>
<path d="M14.1909 15.9628C13.8038 15.4538 13.2493 15.0938 12.5303 14.8828C13.0887 14.606 13.5048 14.2431 13.7806 13.7941C14.0564 13.3451 14.1948 12.866 14.1948 12.357C14.1948 11.8102 14.039 11.2867 13.7283 10.7854C13.4177 10.2841 12.9861 9.91344 12.4374 9.67247C11.8887 9.43151 11.1571 9.30957 10.2474 9.30957H5.78125V21.2167H10.3209C11.0796 21.2167 11.7193 21.1509 12.2419 21.0183C12.7645 20.8847 13.199 20.6892 13.5454 20.4289C13.8919 20.1696 14.1832 19.7999 14.4183 19.3209C14.6535 18.8409 14.7716 18.3231 14.7716 17.7657C14.7716 17.0718 14.578 16.4718 14.1909 15.9628ZM7.35673 14.3128V10.7157H9.73641C10.5919 10.7157 11.1958 10.7709 11.548 10.8812C11.9003 10.9925 12.1703 11.1976 12.36 11.4986C12.5496 11.8005 12.6445 12.148 12.6445 12.5428C12.6445 12.9599 12.5429 13.3063 12.3396 13.5822C12.1364 13.858 11.8345 14.0563 11.4338 14.1754C11.1309 14.2673 10.6296 14.3138 9.9319 14.3138H7.35673V14.3128ZM12.9048 18.7683C12.7471 19.0586 12.5467 19.2783 12.3038 19.4312C12.06 19.5822 11.7571 19.6905 11.3942 19.7554C11.189 19.7931 10.8309 19.8134 10.3219 19.8134H7.35673V19.8125V15.7189H10.11C10.8687 15.7189 11.4483 15.7847 11.8519 15.9183C12.2554 16.0499 12.5709 16.2812 12.7983 16.6083C13.0258 16.9354 13.14 17.3215 13.14 17.7657C13.14 18.1451 13.0616 18.478 12.9048 18.7683Z" fill="#FFBC68"/>
<path d="M24.2205 16.8907C24.2205 15.4662 23.8547 14.362 23.124 13.5762C22.3924 12.7884 21.4508 12.3965 20.2973 12.3965C19.106 12.3965 18.1382 12.7971 17.3902 13.5984C16.6431 14.4007 16.2695 15.5262 16.2695 16.9778C16.2695 18.38 16.6392 19.4697 17.3776 20.2478C18.1179 21.0239 19.1176 21.412 20.3805 21.412C21.3811 21.412 22.2037 21.1681 22.8492 20.6813C23.4937 20.1936 23.934 19.5084 24.1721 18.6258L22.6615 18.441C22.4399 19.0575 22.1399 19.5075 21.7586 19.7891C21.3802 20.0707 20.9234 20.211 20.3873 20.211C19.6673 20.211 19.0663 19.9594 18.5834 19.4562C18.1024 18.952 17.8353 18.2262 17.7802 17.2797H24.2128C24.2186 17.1065 24.2205 16.9768 24.2205 16.8907ZM17.8615 16.0758V16.0749C17.9089 15.322 18.1634 14.722 18.6192 14.272C19.0779 13.8229 19.6431 13.5975 20.3128 13.5975C21.055 13.5975 21.6589 13.88 22.1244 14.4433C22.4263 14.8062 22.6111 15.35 22.6769 16.0758H17.8615Z" fill="#FFBC68"/>
<path d="M22.6868 10.374H17.8016L17.7891 11.576H22.6955L22.6868 10.374Z" fill="#FFBC68"/>
</svg>
