<svg width="30" height="30" viewBox="0 0 30 30" fill="none" xmlns="http://www.w3.org/2000/svg">
<path d="M21.9165 0H8.08161C3.70064 0 0 3.70161 0 8.08258V21.9184C0 26.2994 3.70064 30 8.08161 30H21.9165C26.2984 30 30 26.2994 30 21.9184V8.08258C30 3.70161 26.2974 0 21.9165 0ZM28.0645 21.9184C28.0645 25.1923 25.1913 28.0645 21.9165 28.0645H8.08161C4.80774 28.0645 1.93548 25.1923 1.93548 21.9184V8.08258C1.93548 4.80774 4.80774 1.93548 8.08161 1.93548H21.9165C25.1923 1.93548 28.0645 4.80871 28.0645 8.08258V21.9184Z" fill="#FFBC68"/>
<path d="M24.432 13.0645C24.3042 12.4442 24.1155 11.8355 23.8707 11.2568C23.6268 10.6819 23.3278 10.1313 22.9842 9.6242C22.6465 9.12194 22.2536 8.64291 21.8113 8.19968C21.3807 7.77098 20.9036 7.37614 20.3917 7.02872C19.8836 6.6842 19.333 6.38517 18.7562 6.14033C18.4397 6.00678 18.1126 5.88969 17.7797 5.78904C17.5049 5.70678 17.2281 5.6371 16.9484 5.58001C15.6749 5.31968 14.35 5.31968 13.0784 5.58001C12.463 5.70581 11.8552 5.89452 11.2688 6.1413C10.692 6.38517 10.1423 6.68517 9.63618 7.02872C9.12328 7.37614 8.64521 7.77001 8.21166 8.20259C7.77715 8.63904 7.38328 9.1171 7.04166 9.62227C6.69231 10.1381 6.39328 10.6897 6.15521 11.2558C5.91134 11.8316 5.72166 12.4403 5.59199 13.0674C5.46328 13.7032 5.39844 14.3536 5.39844 15C5.39844 15.6455 5.46328 16.2958 5.59295 16.9394C5.72166 17.5607 5.91037 18.1684 6.15424 18.7442C6.39618 19.3152 6.69424 19.8648 7.04166 20.3787C7.38328 20.8829 7.77715 21.361 8.2136 21.7994C8.64618 22.2319 9.12521 22.6268 9.63715 22.9723C10.153 23.3207 10.7026 23.6187 11.2697 23.8587C11.8465 24.1026 12.4533 24.2913 13.0765 24.42C13.7075 24.5497 14.3588 24.6155 15.013 24.6155C15.6662 24.6155 16.3184 24.5497 16.9513 24.419C17.5755 24.2894 18.1833 24.1007 18.7562 23.8578C19.3242 23.6187 19.8739 23.3207 20.3926 22.9703C20.9036 22.6239 21.3817 22.23 21.8162 21.7965C22.2546 21.3552 22.6484 20.8771 22.9842 20.3777C23.3278 19.8697 23.6268 19.32 23.8717 18.7432C24.1175 18.1626 24.3062 17.5548 24.432 16.9365C24.5626 16.3016 24.6284 15.6503 24.6284 14.999C24.6284 14.3468 24.5617 13.6955 24.432 13.0645ZM22.5342 16.5484C22.4336 17.0419 22.2836 17.5268 22.0881 17.9884C21.8926 18.449 21.6546 18.8884 21.3788 19.2948C21.1097 19.6955 20.7942 20.0778 20.4439 20.43C20.0984 20.7755 19.7152 21.091 19.3068 21.3678C18.8936 21.6465 18.4552 21.8845 18.0013 22.0761C17.5436 22.2707 17.0588 22.4216 16.5594 22.5242C15.5539 22.7313 14.472 22.7313 13.4675 22.5242C12.9691 22.4216 12.4833 22.2716 12.0226 22.0761C11.5707 21.8855 11.1323 21.6484 10.7201 21.3687C10.3097 21.0919 9.92747 20.7765 9.58392 20.4329C9.2336 20.0816 8.91811 19.6984 8.64424 19.2939C8.36844 18.8855 8.13037 18.4471 7.93779 17.9903C7.74231 17.5297 7.59134 17.0439 7.48973 16.5523C7.38618 16.0394 7.33392 15.5177 7.33392 15C7.33392 14.4813 7.38618 13.9607 7.48876 13.4536C7.59231 12.9552 7.74231 12.4703 7.93876 12.0087C8.12941 11.5548 8.3665 11.1174 8.64521 10.7061C8.91908 10.3016 9.23457 9.91839 9.58199 9.57001C9.92747 9.22549 10.3107 8.91001 10.723 8.63033C11.1265 8.35646 11.5649 8.11839 12.0226 7.92388C12.4901 7.72743 12.9749 7.57646 13.4655 7.47678C13.9746 7.37323 14.4952 7.32001 15.013 7.32001C15.5297 7.32001 16.0513 7.37323 16.5613 7.47678C16.7839 7.52227 17.0055 7.57839 17.2223 7.64323C17.4875 7.72356 17.7488 7.81743 18.0013 7.92388C18.462 8.11839 18.9013 8.35646 19.3049 8.63033C19.7162 8.90904 20.0994 9.22549 20.442 9.56807C20.7942 9.9213 21.1097 10.3036 21.3807 10.7071C21.6555 11.1136 21.8936 11.5519 22.0881 12.0116C22.2836 12.4723 22.4336 12.9571 22.5352 13.4545C22.6388 13.9587 22.692 14.4784 22.692 14.999C22.692 15.5197 22.6388 16.0403 22.5342 16.5484Z" fill="#FFBC68"/>
<path d="M19.6759 22.5955C19.6362 22.4165 18.6917 18.1497 17.1617 14.1278C15.8785 10.7475 12.5408 6.59876 12.3995 6.4236C12.0637 6.00844 11.455 5.9436 11.0388 6.27941C10.6237 6.61521 10.5588 7.22489 10.8946 7.64005C10.9275 7.6807 14.1801 11.7259 15.354 14.8159C16.8317 18.7013 17.7772 22.9701 17.7869 23.0126C17.8866 23.4646 18.2872 23.7723 18.7314 23.7723C18.8011 23.7723 18.8708 23.7655 18.9385 23.7481C19.4601 23.6339 19.7911 23.1181 19.6759 22.5955Z" fill="#FFBC68"/>
<path d="M21.6754 8.088C21.2351 7.7851 20.6322 7.89833 20.3302 8.33671C20.309 8.36865 18.1538 11.4586 15.4035 12.1457C11.6941 13.0748 6.45863 13.2896 6.40638 13.2915C5.87218 13.3119 5.45605 13.7619 5.47734 14.2961C5.49767 14.8177 5.92638 15.2261 6.44412 15.2261C6.4567 15.2261 6.46928 15.2261 6.48089 15.2251C6.70347 15.2164 11.967 15.0015 15.8728 14.0241C19.3422 13.1561 21.8225 9.58413 21.9261 9.43219C22.228 8.99187 22.1157 8.38994 21.6754 8.088Z" fill="#FFBC68"/>
<path d="M24.0572 14.8617C23.8714 14.7717 19.4507 12.661 15.0049 14.8346C11.2849 16.652 8.27428 20.3497 8.14847 20.5065C7.81266 20.9217 7.8775 21.5314 8.29363 21.8672C8.47266 22.0123 8.68653 22.082 8.90041 22.082C9.18299 22.082 9.46266 21.9591 9.65331 21.721C9.68234 21.6862 12.5149 18.2033 15.8536 16.5726C19.4362 14.8239 23.1717 16.5833 23.2094 16.6017C23.6914 16.8339 24.2672 16.6346 24.5014 16.1555C24.7365 15.6755 24.5372 15.0959 24.0572 14.8617Z" fill="#FFBC68"/>
</svg>
