<svg width="30" height="30" viewBox="0 0 30 30" fill="none" xmlns="http://www.w3.org/2000/svg">
<path d="M19.1913 10.2901H19.0887C19.4507 10.1508 19.7081 9.7985 19.7081 9.38721V6.02721C19.7081 5.49398 19.2774 5.0614 18.7442 5.05946L15.9707 5.04785C12.4674 5.04785 11.2249 7.59785 11.2249 9.78108V10.2901C10.7052 10.3075 10.2891 10.7343 10.2891 11.2579V15.0001C10.2891 15.5246 10.7052 15.9504 11.2249 15.9679V24.3553C11.2249 24.8895 11.6584 25.323 12.1926 25.323H15.9349C16.4691 25.323 16.9026 24.8895 16.9026 24.3553V15.9679H18.8633C19.3655 15.9679 19.7836 15.5846 19.8262 15.0853L20.1552 11.343C20.1784 11.072 20.0874 10.8049 19.9045 10.6046C19.7216 10.4043 19.4623 10.2901 19.1913 10.2901ZM17.9768 14.0324H15.9349C15.4007 14.0324 14.9671 14.4659 14.9671 15.0001V23.3875H13.1604V15.0001C13.1604 14.4756 12.7442 14.0498 12.2245 14.0324V12.2256C12.7442 12.2082 13.1604 11.7814 13.1604 11.2579V9.78205C13.1604 8.73688 13.5262 6.9843 15.9668 6.9843L17.7726 6.99205V8.41753L16.802 8.41172C15.0552 8.41172 14.9671 9.70947 14.9671 9.96979V11.2579C14.9671 11.792 15.4007 12.2256 15.9349 12.2256H18.1355L17.9768 14.0324Z" fill="#FFBC68"/>
<path d="M22.1855 0H7.81065C3.28548 0 0 3.28645 0 7.81355V22.1874C0 26.7135 3.28452 30 7.81065 30H22.1855C26.7135 30 30 26.7135 30 22.1874V7.81355C30 3.28645 26.7135 0 22.1855 0ZM28.0645 22.1874C28.0645 25.6471 25.6471 28.0645 22.1855 28.0645H7.81065C4.35194 28.0645 1.93548 25.6481 1.93548 22.1874V7.81355C1.93548 4.3529 4.35194 1.93548 7.81065 1.93548H22.1855C25.6471 1.93548 28.0645 4.3529 28.0645 7.81355V22.1874Z" fill="#FFBC68"/>
</svg>
