<svg width="30" height="30" viewBox="0 0 30 30" fill="none" xmlns="http://www.w3.org/2000/svg">
<path d="M17.5965 12.9566C16.9936 12.1224 16.023 11.624 14.9991 11.624C13.9753 11.624 13.0046 12.1224 12.4017 12.9576C12.0059 13.5063 11.7969 14.1527 11.7969 14.8263C11.7969 16.5924 13.233 18.0276 14.9991 18.0276C16.7653 18.0276 18.2033 16.5924 18.2033 14.8253C18.2033 14.1527 17.9933 13.5063 17.5965 12.9566ZM14.9991 16.0921C14.3004 16.0921 13.7324 15.524 13.7324 14.8263C13.7324 14.5621 13.8146 14.3076 13.9714 14.0908C14.2143 13.754 14.5898 13.5605 14.9991 13.5605C15.4085 13.5605 15.784 13.7531 16.0269 14.0898C16.1846 14.3085 16.2678 14.5631 16.2678 14.8263C16.2678 15.525 15.6988 16.0921 14.9991 16.0921Z" fill="#FFBC68"/>
<path d="M24.3558 13.0967H19.5548C19.2567 13.0967 18.9751 13.2341 18.7922 13.4683C18.6093 13.7025 18.5435 14.0083 18.6151 14.2976C18.7419 14.8067 18.8561 15.0467 18.9432 15.1735C18.948 15.2112 18.948 15.2596 18.948 15.3273C18.948 17.4138 17.2497 18.9873 14.9977 18.9873C12.6713 18.9873 11.0464 17.5425 11.0464 15.4735C11.0464 15.3167 11.0561 15.276 11.0561 15.276C11.0648 15.2422 11.0793 15.2151 11.0938 15.1793C11.1616 15.0167 11.2632 14.7709 11.3803 14.2967C11.4519 14.0083 11.3871 13.7025 11.2032 13.4683C11.0193 13.2341 10.7387 13.0967 10.4406 13.0967H5.64352C5.10933 13.0967 4.67578 13.5302 4.67578 14.0644C4.67578 14.5986 5.10933 15.0322 5.64352 15.0322H9.13514C9.11868 15.1541 9.10997 15.2973 9.10997 15.4735C9.10997 18.5799 11.6406 20.9228 14.9967 20.9228C18.3519 20.9228 20.8826 18.518 20.8845 15.3273C20.8845 15.216 20.8806 15.1193 20.8738 15.0322H24.3558C24.89 15.0322 25.3235 14.5986 25.3235 14.0644C25.3235 13.5302 24.89 13.0967 24.3558 13.0967Z" fill="#FFBC68"/>
<path d="M23.9942 8.81188C23.9932 8.81188 23.9923 8.81188 23.9923 8.81188L19.8387 8.82059L19.83 5.63866C19.829 5.10446 19.3955 4.67285 18.8623 4.67285C18.8613 4.67285 18.8613 4.67285 18.8603 4.67285C18.3252 4.67382 17.8936 5.10834 17.8945 5.64253L17.9052 9.79221C17.9061 10.3264 18.3397 10.758 18.8729 10.758C18.8729 10.758 18.8739 10.758 18.8758 10.758L23.9961 10.7474C24.5303 10.7464 24.9629 10.3119 24.962 9.77769C24.961 9.2435 24.5274 8.81188 23.9942 8.81188Z" fill="#FFBC68"/>
<path d="M20.5158 4.67676H9.47772C6.91997 4.67676 4.67578 6.75256 4.67578 9.11869V20.1558C4.67578 22.4813 6.89191 25.3226 9.47772 25.3226H20.5158C23.1035 25.3226 25.3216 22.4813 25.3216 20.1558V9.11869C25.3216 6.75256 23.0764 4.67676 20.5158 4.67676ZM23.3861 20.1558C23.3861 21.6355 21.83 23.3871 20.5158 23.3871H9.47772C8.16546 23.3871 6.61127 21.6355 6.61127 20.1558V9.11869C6.61127 7.83063 8.00385 6.61224 9.47772 6.61224H20.5158C21.9916 6.61224 23.3861 7.83063 23.3861 9.11869V20.1558Z" fill="#FFBC68"/>
<path d="M22.1961 0H7.80194C3.20806 0 0 3.06 0 7.44194V21.8323C0 26.4126 3.42677 30 7.80194 30H22.1961C26.5723 30 30 26.4126 30 21.8323V7.44194C30 3.06097 26.791 0 22.1961 0ZM28.0645 21.8323C28.0645 25.3848 25.5426 28.0645 22.1961 28.0645H7.80194C4.45742 28.0645 1.93548 25.3858 1.93548 21.8323V7.44194C1.93548 4.09645 4.23774 1.93548 7.80194 1.93548H22.1961C25.7613 1.93548 28.0645 4.09645 28.0645 7.44194V21.8323Z" fill="#FFBC68"/>
</svg>
