<svg width="30" height="30" viewBox="0 0 30 30" fill="none" xmlns="http://www.w3.org/2000/svg">
<path d="M22.0887 0H7.90839C3.47419 0 0 3.47516 0 7.91032V22.0906C0 26.5258 3.47419 30 7.90839 30H22.0887C26.5248 30 30 26.5258 30 22.0897V7.91032C30 3.47516 26.5248 0 22.0887 0ZM28.0645 22.0897C28.0645 25.4952 25.4961 28.0635 22.0887 28.0635H7.90839C4.5029 28.0635 1.93548 25.4961 1.93548 22.0897V7.91032C1.93548 4.50387 4.5029 1.93548 7.90839 1.93548H22.0887C25.4961 1.93548 28.0645 4.50387 28.0645 7.91032V22.0897Z" fill="#FFBC68"/>
<path d="M15.4285 6.1377C10.4302 6.1377 7.91016 9.60608 7.91016 12.4977C7.91016 14.2493 8.59532 15.8064 10.0634 16.388C10.1253 16.4122 10.1863 16.4248 10.2434 16.4248C10.4079 16.4248 10.5405 16.3241 10.5908 16.1325C10.6402 15.9545 10.7544 15.5045 10.8066 15.3148C10.8763 15.0593 10.8502 14.9712 10.6556 14.7487C10.2318 14.2648 9.95983 13.6387 9.95983 12.7532C9.95983 10.179 11.9514 7.87673 15.1411 7.87673C17.966 7.87673 19.5182 9.54705 19.5182 11.7777C19.5182 14.7129 18.176 17.1912 16.1834 17.1912C15.0811 17.1912 14.2585 16.3096 14.5227 15.2296C14.8392 13.9396 15.4527 12.548 15.4527 11.618C15.4527 10.7838 14.9892 10.09 14.0331 10.09C12.9066 10.09 12.0027 11.2154 12.0027 12.7251C12.0027 13.6851 12.3385 14.3364 12.3385 14.3364C12.3385 14.3364 11.1889 19.0571 10.9866 19.8845C10.584 21.5306 10.9256 23.5493 10.9547 23.7525C10.9644 23.8251 11.0263 23.8648 11.0902 23.8648C11.1327 23.8648 11.1763 23.8474 11.2043 23.8106C11.3089 23.6809 12.6482 22.0793 13.104 20.4787C13.2347 20.0258 13.8444 17.6809 13.8444 17.6809C14.2102 18.3554 15.2785 18.9487 16.4156 18.9487C19.7969 18.9487 22.0914 15.967 22.0914 11.9732C22.0905 8.95092 19.4476 6.1377 15.4285 6.1377Z" fill="#FFBC68"/>
</svg>
