<svg width="30" height="30" viewBox="0 0 30 30" fill="none" xmlns="http://www.w3.org/2000/svg">
<path d="M19.4667 16.7253C19.4135 16.6392 19.2751 16.586 19.0671 16.4824C18.858 16.3808 17.8284 15.8776 17.6377 15.8079C17.5545 15.7779 17.4809 15.7537 17.4132 15.7537C17.3242 15.7537 17.2448 15.7944 17.1664 15.9115C17.0271 16.1195 16.6254 16.586 16.5045 16.7253C16.4358 16.8047 16.3651 16.8444 16.28 16.8444C16.2161 16.8444 16.1416 16.8221 16.0525 16.7766C15.8416 16.675 15.168 16.4544 14.3696 15.7489C13.7484 15.1982 13.3284 14.5189 13.2054 14.3108C13.0835 14.1047 13.1929 13.9915 13.2984 13.8889C13.3922 13.7931 13.5064 13.645 13.6129 13.524C13.7174 13.4031 13.7522 13.3169 13.8209 13.1786C13.8896 13.0402 13.8558 12.9182 13.8025 12.8147C13.7513 12.7111 13.3332 11.6902 13.1571 11.274C13.0274 10.9644 12.8967 10.9247 12.7884 10.9247C12.7516 10.9247 12.7167 10.9295 12.6858 10.9295C12.5658 10.9295 12.4274 10.9111 12.2861 10.9111C12.1467 10.9111 11.9213 10.9634 11.7287 11.1724C11.538 11.3786 10.9961 11.8808 10.9961 12.9018C10.9961 13.9237 11.7451 14.9089 11.8516 15.0473C11.9551 15.1866 13.2984 17.3495 15.4235 18.1808C16.6554 18.6627 17.1742 18.7721 17.4664 18.7721C17.6793 18.7721 17.7722 18.714 17.9338 18.6995C18.3161 18.6656 19.1706 18.1963 19.3458 17.7124C19.52 17.2286 19.52 16.8115 19.4667 16.7253Z" fill="#FFBC68"/>
<path d="M21.9523 0H8.04774C3.68516 0 0 3.68613 0 8.04774V21.9513C0 26.3139 3.68516 30 8.04774 30H21.9523C26.3139 30 30 26.3139 30 21.9503V8.04774C30 3.68613 26.3148 0 21.9523 0ZM28.0645 21.9503C28.0645 25.2639 25.2658 28.0635 21.9523 28.0635H8.04774C4.73516 28.0635 1.93548 25.2648 1.93548 21.9503V8.04774C1.93548 4.73516 4.73516 1.93548 8.04774 1.93548H21.9523C25.2648 1.93548 28.0645 4.73419 28.0645 8.04774V21.9503Z" fill="#FFBC68"/>
<path d="M15.1585 5.3418C9.92112 5.3418 5.66015 9.57373 5.66015 14.7763C5.66015 16.345 6.05015 17.8828 6.79338 19.2502L5.39499 23.3786C5.27789 23.7241 5.36499 24.1053 5.62047 24.3666C5.80531 24.5563 6.05596 24.657 6.31144 24.657C6.40918 24.657 6.50789 24.6424 6.60467 24.6115L10.945 23.2334C12.2466 23.8721 13.6943 24.2089 15.1585 24.2089C20.3969 24.2089 24.6589 19.9779 24.6589 14.7763C24.6589 9.57373 20.3969 5.3418 15.1585 5.3418ZM15.1566 22.2744C13.8753 22.2744 12.6105 21.9521 11.4995 21.3415C11.3563 21.2631 11.1956 21.2224 11.034 21.2224C10.9363 21.2224 10.8376 21.237 10.7398 21.2679L7.83951 22.1882L8.76467 19.4592C8.8566 19.1882 8.8237 18.8892 8.67467 18.6444C7.96725 17.4831 7.5937 16.1457 7.5937 14.7773C7.5937 10.6431 10.9866 7.27825 15.1566 7.27825C19.3276 7.27825 22.7214 10.6431 22.7214 14.7773C22.7214 18.9105 19.3285 22.2744 15.1566 22.2744Z" fill="#FFBC68"/>
</svg>
