<svg width="9" height="20" viewBox="0 0 9 20" fill="none" xmlns="http://www.w3.org/2000/svg">
<path d="M8.11781 5.30145H8.02427C8.35431 5.16519 8.58905 4.82077 8.58905 4.41862V1.13335C8.58905 0.611988 8.19635 0.189028 7.71011 0.187136L5.18096 0.175781C1.98643 0.175781 0.853345 2.66907 0.853345 4.80373V5.30145C0.379461 5.31848 0 5.73576 0 6.24766V9.90669C0 10.4195 0.379461 10.8359 0.853345 10.8529V19.0538C0.853345 19.5761 1.24869 20 1.73581 20H5.14831C5.63543 20 6.03078 19.5761 6.03078 19.0538V10.8529H7.81866C8.27666 10.8529 8.65788 10.4782 8.69671 9.98996L8.99675 6.33093C9.01793 6.06599 8.93498 5.80483 8.76819 5.60897C8.6014 5.4131 8.3649 5.30145 8.11781 5.30145ZM7.01031 8.96047H5.14831C4.66119 8.96047 4.26584 9.38438 4.26584 9.90669V18.1076H2.61828V9.90669C2.61828 9.39384 2.23882 8.9775 1.76493 8.96047V7.19388C2.23882 7.17685 2.61828 6.75957 2.61828 6.24766V4.80468C2.61828 3.78276 2.95185 2.06916 5.17743 2.06916L6.82411 2.07673V3.47051L5.939 3.46484C4.34615 3.46484 4.26584 4.73371 4.26584 4.98825V6.24766C4.26584 6.76998 4.66119 7.19388 5.14831 7.19388H7.15504L7.01031 8.96047Z" fill="#131313"/>
</svg>
