<svg width="30" height="30" viewBox="0 0 30 30" fill="none" xmlns="http://www.w3.org/2000/svg">
<path d="M17.5965 12.9566C16.9936 12.1224 16.023 11.624 14.9991 11.624C13.9753 11.624 13.0046 12.1224 12.4017 12.9576C12.0059 13.5063 11.7969 14.1527 11.7969 14.8263C11.7969 16.5924 13.233 18.0276 14.9991 18.0276C16.7653 18.0276 18.2033 16.5924 18.2033 14.8253C18.2033 14.1527 17.9933 13.5063 17.5965 12.9566ZM14.9991 16.0921C14.3004 16.0921 13.7324 15.524 13.7324 14.8263C13.7324 14.5621 13.8146 14.3076 13.9714 14.0908C14.2143 13.754 14.5898 13.5605 14.9991 13.5605C15.4085 13.5605 15.784 13.7531 16.0269 14.0898C16.1846 14.3085 16.2678 14.5631 16.2678 14.8263C16.2678 15.525 15.6988 16.0921 14.9991 16.0921Z" fill="#131313"/>
<path d="M24.3558 13.0957H19.5548C19.2567 13.0957 18.9751 13.2331 18.7922 13.4673C18.6093 13.7015 18.5435 14.0073 18.6151 14.2967C18.7419 14.8057 18.8561 15.0457 18.9432 15.1725C18.948 15.2102 18.948 15.2586 18.948 15.3263C18.948 17.4128 17.2497 18.9864 14.9977 18.9864C12.6713 18.9864 11.0464 17.5415 11.0464 15.4725C11.0464 15.3157 11.0561 15.2751 11.0561 15.2751C11.0648 15.2412 11.0793 15.2141 11.0938 15.1783C11.1616 15.0157 11.2632 14.7699 11.3803 14.2957C11.4519 14.0073 11.3871 13.7015 11.2032 13.4673C11.0193 13.2331 10.7387 13.0957 10.4406 13.0957H5.64352C5.10933 13.0957 4.67578 13.5293 4.67578 14.0634C4.67578 14.5976 5.10933 15.0312 5.64352 15.0312H9.13514C9.11868 15.1531 9.10997 15.2963 9.10997 15.4725C9.10997 18.5789 11.6406 20.9218 14.9967 20.9218C18.3519 20.9218 20.8826 18.517 20.8845 15.3263C20.8845 15.2151 20.8806 15.1183 20.8738 15.0312H24.3558C24.89 15.0312 25.3235 14.5976 25.3235 14.0634C25.3235 13.5293 24.89 13.0957 24.3558 13.0957Z" fill="#131313"/>
<path d="M23.9942 8.81188C23.9932 8.81188 23.9923 8.81188 23.9923 8.81188L19.8387 8.82059L19.83 5.63866C19.829 5.10446 19.3955 4.67285 18.8623 4.67285C18.8613 4.67285 18.8613 4.67285 18.8603 4.67285C18.3252 4.67382 17.8936 5.10834 17.8945 5.64253L17.9052 9.79221C17.9061 10.3264 18.3397 10.758 18.8729 10.758C18.8729 10.758 18.8739 10.758 18.8758 10.758L23.9961 10.7474C24.5303 10.7464 24.9629 10.3119 24.9619 9.77769C24.961 9.2435 24.5274 8.81188 23.9942 8.81188Z" fill="#131313"/>
<path d="M20.5158 4.67676H9.47772C6.91997 4.67676 4.67578 6.75256 4.67578 9.11869V20.1558C4.67578 22.4813 6.89191 25.3226 9.47772 25.3226H20.5158C23.1035 25.3226 25.3216 22.4813 25.3216 20.1558V9.11869C25.3216 6.75256 23.0764 4.67676 20.5158 4.67676ZM23.3861 20.1558C23.3861 21.6355 21.83 23.3871 20.5158 23.3871H9.47772C8.16546 23.3871 6.61127 21.6355 6.61127 20.1558V9.11869C6.61127 7.83063 8.00385 6.61224 9.47772 6.61224H20.5158C21.9916 6.61224 23.3861 7.83063 23.3861 9.11869V20.1558Z" fill="#131313"/>
</svg>
