<svg width="31" height="31" viewBox="0 0 31 31" fill="none" xmlns="http://www.w3.org/2000/svg">
<path d="M19.5697 16.8124C19.5162 16.7258 19.3771 16.6723 19.1679 16.5682C18.9578 16.4661 17.9227 15.9602 17.7311 15.8902C17.6474 15.86 17.5735 15.8357 17.5054 15.8357C17.4159 15.8357 17.3361 15.8766 17.2573 15.9943C17.1172 16.2034 16.7135 16.6723 16.5919 16.8124C16.5228 16.8922 16.4518 16.9321 16.3662 16.9321C16.302 16.9321 16.2271 16.9097 16.1376 16.864C15.9255 16.7618 15.2485 16.54 14.4459 15.8308C13.8214 15.2773 13.3992 14.5944 13.2756 14.3853C13.153 14.178 13.263 14.0642 13.369 13.9611C13.4634 13.8648 13.5782 13.716 13.6852 13.5944C13.7902 13.4728 13.8252 13.3862 13.8943 13.2471C13.9634 13.108 13.9293 12.9854 13.8758 12.8813C13.8243 12.7772 13.404 11.7509 13.227 11.3326C13.0966 11.0213 12.9653 10.9814 12.8563 10.9814C12.8194 10.9814 12.7843 10.9863 12.7532 10.9863C12.6326 10.9863 12.4935 10.9678 12.3514 10.9678C12.2114 10.9678 11.9847 11.0203 11.7911 11.2304C11.5995 11.4376 11.0547 11.9425 11.0547 12.9688C11.0547 13.9961 11.8076 14.9864 11.9147 15.1256C12.0187 15.2656 13.369 17.4399 15.5053 18.2755C16.7437 18.76 17.2651 18.8699 17.5589 18.8699C17.7729 18.8699 17.8663 18.8115 18.0288 18.7969C18.413 18.7629 19.272 18.2911 19.4481 17.8047C19.6232 17.3183 19.6232 16.899 19.5697 16.8124Z" fill="#131313"/>
<path d="M15.2373 5.37012C9.97243 5.37012 5.68915 9.62421 5.68915 14.854C5.68915 16.4309 6.08119 17.9767 6.82831 19.3513L5.4226 23.5013C5.30489 23.8486 5.39245 24.2319 5.64927 24.4946C5.83507 24.6852 6.08703 24.7864 6.34385 24.7864C6.44211 24.7864 6.54133 24.7718 6.63861 24.7407L11.0017 23.3554C12.3101 23.9975 13.7654 24.336 15.2373 24.336C20.5031 24.336 24.7873 20.0829 24.7873 14.854C24.7873 9.62421 20.5031 5.37012 15.2373 5.37012ZM15.2353 22.3913C13.9473 22.3913 12.6759 22.0674 11.5591 21.4536C11.4151 21.3748 11.2536 21.3339 11.0912 21.3339C10.9929 21.3339 10.8937 21.3485 10.7954 21.3796L7.87992 22.3048L8.80992 19.5614C8.90234 19.2891 8.86926 18.9885 8.71945 18.7423C8.00833 17.575 7.63282 16.2306 7.63282 14.855C7.63282 10.6992 11.0435 7.31671 15.2353 7.31671C19.4281 7.31671 22.8398 10.6992 22.8398 14.855C22.8398 19.0099 19.4291 22.3913 15.2353 22.3913Z" fill="#131313"/>
</svg>
